<svg width="1412" height="3257" viewBox="0 0 1412 3257" fill="none" xmlns="http://www.w3.org/2000/svg">
<g clip-path="url(#clip0)">
<rect width="1412" height="3257" fill="white"/>
<path fill-rule="evenodd" clip-rule="evenodd" d="M263.555 2466C393.342 2466 498.555 2360.79 498.555 2231C498.555 2101.21 393.342 1996 263.555 1996C133.768 1996 28.5547 2101.21 28.5547 2231C28.5547 2360.79 133.768 2466 263.555 2466Z" fill="#FFD500"/>
<rect x="1346.66" y="2260.02" width="116" height="368" transform="rotate(56 1346.66 2260.02)" fill="#D8D8D8"/>
<rect x="490.664" y="544.024" width="116" height="368" transform="rotate(56 490.664 544.024)" fill="#D8D8D8"/>
<path fill-rule="evenodd" clip-rule="evenodd" d="M1373.55 1560.04C1371.89 1560.01 1370.22 1560 1368.55 1560C1187.96 1560 1041.55 1706.85 1041.55 1888C1041.55 2069.15 1187.96 2216 1368.55 2216C1370.22 2216 1371.89 2215.99 1373.55 2215.96V2007.17C1371.9 2007.24 1370.23 2007.27 1368.55 2007.27C1302.88 2007.27 1249.64 1953.87 1249.64 1888C1249.64 1822.13 1302.88 1768.73 1368.55 1768.73C1370.23 1768.73 1371.9 1768.76 1373.55 1768.83V1560.04Z" fill="#52B86A"/>
<path d="M1373.55 1560.04H1376.05V1557.57L1373.59 1557.54L1373.55 1560.04ZM1373.55 2215.96L1373.59 2218.46L1376.05 2218.43V2215.96H1373.55ZM1373.55 2007.17H1376.05V2004.56L1373.45 2004.67L1373.55 2007.17ZM1373.55 1768.83L1373.45 1771.33L1376.05 1771.44V1768.83H1373.55ZM1368.55 1562.5C1370.21 1562.5 1371.86 1562.51 1373.52 1562.54L1373.59 1557.54C1371.91 1557.51 1370.24 1557.5 1368.55 1557.5V1562.5ZM1044.05 1888C1044.05 1708.22 1189.34 1562.5 1368.55 1562.5V1557.5C1186.57 1557.5 1039.05 1705.48 1039.05 1888H1044.05ZM1368.55 2213.5C1189.34 2213.5 1044.05 2067.78 1044.05 1888H1039.05C1039.05 2070.52 1186.57 2218.5 1368.55 2218.5V2213.5ZM1373.52 2213.46C1371.86 2213.49 1370.21 2213.5 1368.55 2213.5V2218.5C1370.24 2218.5 1371.91 2218.49 1373.59 2218.46L1373.52 2213.46ZM1376.05 2215.96V2007.17H1371.05V2215.96H1376.05ZM1368.55 2009.77C1370.26 2009.77 1371.96 2009.74 1373.66 2009.67L1373.45 2004.67C1371.83 2004.74 1370.19 2004.77 1368.55 2004.77V2009.77ZM1247.14 1888C1247.14 1955.25 1301.49 2009.77 1368.55 2009.77V2004.77C1304.27 2004.77 1252.14 1952.5 1252.14 1888H1247.14ZM1368.55 1766.23C1301.49 1766.23 1247.14 1820.75 1247.14 1888H1252.14C1252.14 1823.5 1304.27 1771.23 1368.55 1771.23V1766.23ZM1373.66 1766.33C1371.96 1766.26 1370.26 1766.23 1368.55 1766.23V1771.23C1370.19 1771.23 1371.83 1771.26 1373.45 1771.33L1373.66 1766.33ZM1376.05 1768.83V1560.04H1371.05V1768.83H1376.05Z" fill="#52B86A"/>
<path fill-rule="evenodd" clip-rule="evenodd" d="M750.517 362.999C750.542 361.335 750.555 359.668 750.555 357.999C750.555 177.402 603.704 31 422.555 31C241.405 31 94.5547 177.402 94.5547 357.999C94.5547 359.668 94.5672 361.335 94.5922 362.999L303.385 362.999C303.317 361.34 303.282 359.674 303.282 357.999C303.282 292.327 356.682 239.09 422.555 239.09C488.427 239.09 541.827 292.327 541.827 357.999C541.827 359.674 541.793 361.34 541.724 362.999L750.517 362.999Z" fill="#52B86A"/>
<path d="M750.517 362.999V365.499H752.98L753.017 363.036L750.517 362.999ZM94.5922 362.999L92.0925 363.036L92.1295 365.499H94.5922V362.999ZM303.385 362.999V365.499H305.991L305.883 362.895L303.385 362.999ZM541.724 362.999L539.226 362.895L539.118 365.499H541.724V362.999ZM748.055 357.999C748.055 359.656 748.042 361.31 748.017 362.961L753.017 363.036C753.042 361.36 753.055 359.681 753.055 357.999H748.055ZM422.555 33.5C602.331 33.5 748.055 178.79 748.055 357.999H753.055C753.055 176.014 605.078 28.5 422.555 28.5V33.5ZM97.0547 357.999C97.0547 178.79 242.779 33.5 422.555 33.5V28.5C240.032 28.5 92.0547 176.014 92.0547 357.999H97.0547ZM97.0919 362.961C97.0671 361.31 97.0547 359.656 97.0547 357.999H92.0547C92.0547 359.681 92.0673 361.36 92.0925 363.036L97.0919 362.961ZM94.5922 365.499L303.385 365.499V360.499L94.5922 360.499V365.499ZM300.782 357.999C300.782 359.708 300.817 361.41 300.888 363.102L305.883 362.895C305.816 361.271 305.782 359.639 305.782 357.999H300.782ZM422.555 236.59C355.309 236.59 300.782 290.939 300.782 357.999H305.782C305.782 293.715 358.056 241.59 422.555 241.59V236.59ZM544.327 357.999C544.327 290.939 489.801 236.59 422.555 236.59V241.59C487.054 241.59 539.327 293.715 539.327 357.999H544.327ZM544.222 363.102C544.292 361.41 544.327 359.708 544.327 357.999H539.327C539.327 359.639 539.293 361.271 539.226 362.895L544.222 363.102ZM541.724 365.499L750.517 365.499V360.499L541.724 360.499V365.499Z" fill="#52B86A"/>
<path fill-rule="evenodd" clip-rule="evenodd" d="M1082.55 717C1212.34 717 1317.55 611.787 1317.55 482C1317.55 352.213 1212.34 247 1082.55 247C952.768 247 847.555 352.213 847.555 482C847.555 611.787 952.768 717 1082.55 717Z" fill="#FFD500"/>
<path fill-rule="evenodd" clip-rule="evenodd" d="M370.437 1753.66L92.1668 1668.58L304.979 1470.13L517.792 1271.68L583.249 1555.21L648.707 1838.73L370.437 1753.66Z" fill="#FD825B"/>
<path fill-rule="evenodd" clip-rule="evenodd" d="M338.555 2819C383.29 2819 419.555 2782.74 419.555 2738C419.555 2693.26 383.29 2657 338.555 2657C293.82 2657 257.555 2693.26 257.555 2738C257.555 2782.74 293.82 2819 338.555 2819Z" fill="#D8D8D8"/>
<path fill-rule="evenodd" clip-rule="evenodd" d="M1191.26 2998.85L981.94 3200.98L911.545 2918.64L841.149 2636.3L1120.86 2716.51L1400.57 2796.71L1191.26 2998.85Z" fill="#FD825B"/>
<path fill-rule="evenodd" clip-rule="evenodd" d="M1248.55 1126C1293.29 1126 1329.55 1089.74 1329.55 1045C1329.55 1000.26 1293.29 964 1248.55 964C1203.82 964 1167.55 1000.26 1167.55 1045C1167.55 1089.74 1203.82 1126 1248.55 1126Z" fill="#D8D8D8"/>
</g>
<defs>
<clipPath id="clip0">
<rect width="1412" height="3257" fill="white"/>
</clipPath>
</defs>
</svg>
