<svg width="1024" height="1617" viewBox="0 0 1024 1617" fill="none" xmlns="http://www.w3.org/2000/svg">
<rect width="1024" height="1617" fill="white"/>
<rect width="1024" height="1617" fill="#F5F5F2"/>
<mask id="mask0" mask-type="alpha" maskUnits="userSpaceOnUse" x="0" y="0" width="1024" height="1617">
<rect width="1024" height="1617" fill="white"/>
</mask>
<g mask="url(#mask0)">
<path fill-rule="evenodd" clip-rule="evenodd" d="M366.25 382.5C366.388 382.5 366.5 382.388 366.5 382.25C366.5 382.112 366.388 382 366.25 382C366.112 382 366 382.112 366 382.25C366 382.388 366.112 382.5 366.25 382.5Z" fill="#FFD500"/>
<path fill-rule="evenodd" clip-rule="evenodd" d="M909.5 518.013C909.001 518.004 908.501 518 908 518C859.951 518 821 556.951 821 605C821 653.049 859.951 692 908 692C908.501 692 909.001 691.996 909.5 691.987V636.601C909.003 636.625 908.503 636.636 908 636.636C890.528 636.636 876.364 622.472 876.364 605C876.364 587.528 890.528 573.364 908 573.364C908.503 573.364 909.003 573.375 909.5 573.399V518.013Z" fill="#52B86A"/>
<path d="M909.5 518.013H912V515.555L909.542 515.513L909.5 518.013ZM909.5 691.987L909.542 694.487L912 694.445V691.987H909.5ZM909.5 636.601H912V633.982L909.383 634.104L909.5 636.601ZM909.5 573.399L909.383 575.896L912 576.018V573.399H909.5ZM908 520.5C908.487 520.5 908.973 520.504 909.458 520.512L909.542 515.513C909.029 515.504 908.515 515.5 908 515.5V520.5ZM823.5 605C823.5 558.332 861.332 520.5 908 520.5V515.5C858.571 515.5 818.5 555.571 818.5 605H823.5ZM908 689.5C861.332 689.5 823.5 651.668 823.5 605H818.5C818.5 654.429 858.571 694.5 908 694.5V689.5ZM909.458 689.488C908.973 689.496 908.487 689.5 908 689.5V694.5C908.515 694.5 909.029 694.496 909.542 694.487L909.458 689.488ZM912 691.987V636.601H907V691.987H912ZM908 639.136C908.542 639.136 909.081 639.124 909.617 639.099L909.383 634.104C908.925 634.126 908.464 634.136 908 634.136V639.136ZM873.864 605C873.864 623.853 889.147 639.136 908 639.136V634.136C891.908 634.136 878.864 621.092 878.864 605H873.864ZM908 570.864C889.147 570.864 873.864 586.147 873.864 605H878.864C878.864 588.908 891.908 575.864 908 575.864V570.864ZM909.617 570.901C909.081 570.876 908.542 570.864 908 570.864V575.864C908.464 575.864 908.925 575.874 909.383 575.896L909.617 570.901ZM912 573.399V518.013H907V573.399H912Z" fill="#52B86A"/>
<path fill-rule="evenodd" clip-rule="evenodd" d="M213.5 7.01267C213.001 7.00423 212.501 7 212 7C163.951 7 125 45.9512 125 94C125 142.049 163.951 181 212 181C212.501 181 213.001 180.996 213.5 180.987L213.5 125.601C213.003 125.625 212.503 125.636 212 125.636C194.528 125.636 180.364 111.472 180.364 94C180.364 76.5277 194.528 62.3636 212 62.3636C212.503 62.3636 213.003 62.3754 213.5 62.3986V7.01267Z" fill="#52B86A"/>
<path d="M213.5 7.01267L216 7.01267V4.55458L213.542 4.51303L213.5 7.01267ZM213.5 180.987L213.542 183.487L216 183.445V180.987H213.5ZM213.5 125.601H216V122.982L213.383 123.104L213.5 125.601ZM213.5 62.3986L213.383 64.8959L216 65.018V62.3986H213.5ZM212 9.5C212.487 9.5 212.973 9.50412 213.458 9.51231L213.542 4.51303C213.029 4.50435 212.515 4.5 212 4.5V9.5ZM127.5 94C127.5 47.3319 165.332 9.5 212 9.5V4.5C162.571 4.5 122.5 44.5705 122.5 94H127.5ZM212 178.5C165.332 178.5 127.5 140.668 127.5 94H122.5C122.5 143.429 162.571 183.5 212 183.5V178.5ZM213.458 178.488C212.973 178.496 212.487 178.5 212 178.5V183.5C212.515 183.5 213.029 183.496 213.542 183.487L213.458 178.488ZM216 180.987L216 125.601L211 125.601L211 180.987H216ZM212 128.136C212.542 128.136 213.081 128.124 213.617 128.099L213.383 123.104C212.925 123.126 212.464 123.136 212 123.136V128.136ZM177.864 94C177.864 112.853 193.147 128.136 212 128.136V123.136C195.908 123.136 182.864 110.092 182.864 94H177.864ZM212 59.8636C193.147 59.8636 177.864 75.147 177.864 94H182.864C182.864 77.9084 195.908 64.8636 212 64.8636V59.8636ZM213.617 59.9013C213.081 59.8763 212.542 59.8636 212 59.8636V64.8636C212.464 64.8636 212.925 64.8745 213.383 64.8959L213.617 59.9013ZM216 62.3986V7.01267L211 7.01267V62.3986H216Z" fill="#52B86A"/>
<path fill-rule="evenodd" clip-rule="evenodd" d="M361.001 468.987C361.5 468.996 362 469 362.501 469C410.55 469 449.501 430.049 449.501 382C449.501 333.951 410.55 295 362.501 295C362 295 361.5 295.004 361.001 295.013V350.399C361.498 350.375 361.998 350.364 362.501 350.364C379.973 350.364 394.137 364.528 394.137 382C394.137 399.472 379.973 413.636 362.501 413.636C361.998 413.636 361.498 413.625 361.001 413.601V468.987Z" fill="#52B86A"/>
<path d="M361.001 468.987H358.501V471.445L360.959 471.487L361.001 468.987ZM361.001 295.013L360.959 292.513L358.501 292.555V295.013H361.001ZM361.001 350.399H358.501V353.018L361.118 352.896L361.001 350.399ZM361.001 413.601L361.118 411.104L358.501 410.982V413.601H361.001ZM362.501 466.5C362.014 466.5 361.528 466.496 361.043 466.488L360.959 471.487C361.472 471.496 361.986 471.5 362.501 471.5V466.5ZM447.001 382C447.001 428.668 409.169 466.5 362.501 466.5V471.5C411.93 471.5 452.001 431.429 452.001 382H447.001ZM362.501 297.5C409.169 297.5 447.001 335.332 447.001 382H452.001C452.001 332.571 411.93 292.5 362.501 292.5V297.5ZM361.043 297.512C361.528 297.504 362.014 297.5 362.501 297.5V292.5C361.986 292.5 361.472 292.504 360.959 292.513L361.043 297.512ZM358.501 295.013V350.399H363.501V295.013H358.501ZM362.501 347.864C361.959 347.864 361.42 347.876 360.884 347.901L361.118 352.896C361.576 352.874 362.037 352.864 362.501 352.864V347.864ZM396.637 382C396.637 363.147 381.354 347.864 362.501 347.864V352.864C378.593 352.864 391.637 365.908 391.637 382H396.637ZM362.501 416.136C381.354 416.136 396.637 400.853 396.637 382H391.637C391.637 398.092 378.593 411.136 362.501 411.136V416.136ZM360.884 416.099C361.42 416.124 361.959 416.136 362.501 416.136V411.136C362.037 411.136 361.576 411.126 361.118 411.104L360.884 416.099ZM358.501 413.601V468.987H363.501V413.601H358.501Z" fill="#52B86A"/>
<path fill-rule="evenodd" clip-rule="evenodd" d="M238 476C275.003 476 305 446.003 305 409C305 371.997 275.003 342 238 342C200.997 342 171 371.997 171 409C171 446.003 200.997 476 238 476Z" fill="#FFD500"/>
<path fill-rule="evenodd" clip-rule="evenodd" d="M1021 723C1058 723 1088 693.003 1088 656C1088 618.997 1058 589 1021 589C983.997 589 954 618.997 954 656C954 693.003 983.997 723 1021 723Z" fill="#FFD500"/>
<path fill-rule="evenodd" clip-rule="evenodd" d="M999 270C1036 270 1066 240.003 1066 203C1066 165.997 1036 136 999 136C961.997 136 932 165.997 932 203C932 240.003 961.997 270 999 270Z" fill="#FFD500"/>
<path fill-rule="evenodd" clip-rule="evenodd" d="M357 189C394.003 189 424 159.003 424 122C424 84.9969 394.003 55 357 55C319.997 55 290 84.9969 290 122C290 159.003 319.997 189 357 189Z" fill="#FFD500"/>
<path fill-rule="evenodd" clip-rule="evenodd" d="M833 1110C870.003 1110 900 1080 900 1043C900 1006 870.003 976 833 976C795.997 976 766 1006 766 1043C766 1080 795.997 1110 833 1110Z" fill="#FFD500"/>
<path fill-rule="evenodd" clip-rule="evenodd" d="M198 1274C235.003 1274 265 1244 265 1207C265 1170 235.003 1140 198 1140C160.997 1140 131 1170 131 1207C131 1244 160.997 1274 198 1274Z" fill="#FFD500"/>
<path fill-rule="evenodd" clip-rule="evenodd" d="M-10 1466C27.0031 1466 57 1436 57 1399C57 1362 27.0031 1332 -10 1332C-47.0031 1332 -77 1362 -77 1399C-77 1436 -47.0031 1466 -10 1466Z" fill="#FFD500"/>
<path fill-rule="evenodd" clip-rule="evenodd" d="M680 1445C717.003 1445 747 1415 747 1378C747 1341 717.003 1311 680 1311C642.997 1311 613 1341 613 1378C613 1415 642.997 1445 680 1445Z" fill="#FFD500"/>
<path fill-rule="evenodd" clip-rule="evenodd" d="M475 1688C512.003 1688 542 1658 542 1621C542 1584 512.003 1554 475 1554C437.997 1554 408 1584 408 1621C408 1658 437.997 1688 475 1688Z" fill="#FFD500"/>
<path fill-rule="evenodd" clip-rule="evenodd" d="M716 583C753.003 583 783 553.003 783 516C783 478.997 753.003 449 716 449C678.997 449 649 478.997 649 516C649 553.003 678.997 583 716 583Z" fill="#FFD500"/>
<path fill-rule="evenodd" clip-rule="evenodd" d="M-4 835C33.0031 835 63 805.003 63 768C63 730.997 33.0031 701 -4 701C-41.0031 701 -71 730.997 -71 768C-71 805.003 -41.0031 835 -4 835Z" fill="#FFD500"/>
<path fill-rule="evenodd" clip-rule="evenodd" d="M903.866 378.078L966.95 411.621L906.359 449.482L845.769 487.343L843.275 415.94L840.782 344.536L903.866 378.078Z" fill="#FD825B"/>
<path fill-rule="evenodd" clip-rule="evenodd" d="M69.0702 675.503L1.51567 652.242L55.4375 605.368L109.359 558.495L122.992 628.629L136.625 698.764L69.0702 675.503Z" fill="#FD825B"/>
<path fill-rule="evenodd" clip-rule="evenodd" d="M546.07 1245.5L478.516 1222.24L532.437 1175.37L586.359 1128.49L599.992 1198.63L613.625 1268.76L546.07 1245.5Z" fill="#FD825B"/>
<path fill-rule="evenodd" clip-rule="evenodd" d="M193.71 1573.16L152.729 1514.63L223.905 1508.41L295.08 1502.18L264.885 1566.93L234.69 1631.69L193.71 1573.16Z" fill="#FD825B"/>
<path fill-rule="evenodd" clip-rule="evenodd" d="M84.8983 251.845L137.994 204.038L152.849 273.924L167.703 343.809L99.753 321.731L31.8028 299.653L84.8983 251.845Z" fill="#FD825B"/>
<path fill-rule="evenodd" clip-rule="evenodd" d="M905.368 836.668L853.115 787.942L921.44 767.052L989.765 746.163L973.693 815.779L957.621 885.395L905.368 836.668Z" fill="#FD825B"/>
<path fill-rule="evenodd" clip-rule="evenodd" d="M861.368 54.6683L809.115 5.94154L877.44 -14.9476L945.765 -35.8367L929.693 33.7792L913.621 103.395L861.368 54.6683Z" fill="#FD825B"/>
<path fill-rule="evenodd" clip-rule="evenodd" d="M97.3676 1071.67L45.1145 1022.94L113.44 1002.05L181.765 981.163L165.693 1050.78L149.621 1120.4L97.3676 1071.67Z" fill="#FD825B"/>
<path fill-rule="evenodd" clip-rule="evenodd" d="M912.188 1682.52L841.133 1675.06L883.128 1617.25L925.124 1559.45L954.184 1624.72L983.244 1689.99L912.188 1682.52Z" fill="#FD825B"/>
<path fill-rule="evenodd" clip-rule="evenodd" d="M1020.1 1228.15L967.006 1275.96L952.151 1206.08L937.297 1136.19L1005.25 1158.27L1073.2 1180.35L1020.1 1228.15Z" fill="#FD825B"/>
<path fill-rule="evenodd" clip-rule="evenodd" d="M464.102 1463.15L411.006 1510.96L396.151 1441.08L381.297 1371.19L449.247 1393.27L517.197 1415.35L464.102 1463.15Z" fill="#FD825B"/>
<path fill-rule="evenodd" clip-rule="evenodd" d="M581.102 256.155L528.006 303.962L513.151 234.076L498.297 164.191L566.247 186.269L634.197 208.347L581.102 256.155Z" fill="#FD825B"/>
<rect x="248.12" y="630.837" width="40" height="128" transform="rotate(52 248.12 630.837)" fill="#D8D8D8"/>
<rect x="371.12" y="1540.84" width="40" height="128" transform="rotate(52 371.12 1540.84)" fill="#D8D8D8"/>
<rect x="570.894" y="329.577" width="40" height="128" transform="rotate(41 570.894 329.577)" fill="#D8D8D8"/>
<rect x="1035.82" y="828.117" width="40" height="128" transform="rotate(40 1035.82 828.117)" fill="#D8D8D8"/>
<rect x="793.817" y="1384.12" width="40" height="128" transform="rotate(40 793.817 1384.12)" fill="#D8D8D8"/>
<rect x="771.84" y="867.181" width="40" height="128" transform="rotate(-59 771.84 867.181)" fill="#D8D8D8"/>
<rect x="461.125" y="764.055" width="40" height="128" transform="rotate(-27 461.125 764.055)" fill="#D8D8D8"/>
<rect x="943.004" y="515.754" width="40" height="128" transform="rotate(-75 943.004 515.754)" fill="#D8D8D8"/>
<path fill-rule="evenodd" clip-rule="evenodd" d="M189.5 765.013C189.001 765.004 188.501 765 188 765C139.951 765 101 803.951 101 852C101 900.049 139.951 939 188 939C188.501 939 189.001 938.996 189.5 938.987V883.601C189.003 883.625 188.503 883.636 188 883.636C170.528 883.636 156.364 869.472 156.364 852C156.364 834.528 170.528 820.364 188 820.364C188.503 820.364 189.003 820.375 189.5 820.399V765.013Z" fill="#52B86A"/>
<path d="M189.5 765.013H192V762.555L189.542 762.513L189.5 765.013ZM189.5 938.987L189.542 941.487L192 941.445V938.987H189.5ZM189.5 883.601H192V880.982L189.383 881.104L189.5 883.601ZM189.5 820.399L189.383 822.896L192 823.018V820.399H189.5ZM188 767.5C188.487 767.5 188.973 767.504 189.458 767.512L189.542 762.513C189.029 762.504 188.515 762.5 188 762.5V767.5ZM103.5 852C103.5 805.332 141.332 767.5 188 767.5V762.5C138.571 762.5 98.5 802.571 98.5 852H103.5ZM188 936.5C141.332 936.5 103.5 898.668 103.5 852H98.5C98.5 901.429 138.571 941.5 188 941.5V936.5ZM189.458 936.488C188.973 936.496 188.487 936.5 188 936.5V941.5C188.515 941.5 189.029 941.496 189.542 941.487L189.458 936.488ZM192 938.987V883.601H187V938.987H192ZM188 886.136C188.542 886.136 189.081 886.124 189.617 886.099L189.383 881.104C188.925 881.126 188.464 881.136 188 881.136V886.136ZM153.864 852C153.864 870.853 169.147 886.136 188 886.136V881.136C171.908 881.136 158.864 868.092 158.864 852H153.864ZM188 817.864C169.147 817.864 153.864 833.147 153.864 852H158.864C158.864 835.908 171.908 822.864 188 822.864V817.864ZM189.617 817.901C189.081 817.876 188.542 817.864 188 817.864V822.864C188.464 822.864 188.925 822.874 189.383 822.896L189.617 817.901ZM192 820.399V765.013H187V820.399H192Z" fill="#52B86A"/>
<path fill-rule="evenodd" clip-rule="evenodd" d="M1034.5 1372.01C1034 1372 1033.5 1372 1033 1372C984.951 1372 946 1410.95 946 1459C946 1507.05 984.951 1546 1033 1546C1033.5 1546 1034 1546 1034.5 1545.99V1490.6C1034 1490.62 1033.5 1490.64 1033 1490.64C1015.53 1490.64 1001.36 1476.47 1001.36 1459C1001.36 1441.53 1015.53 1427.36 1033 1427.36C1033.5 1427.36 1034 1427.38 1034.5 1427.4V1372.01Z" fill="#52B86A"/>
<path d="M1034.5 1372.01H1037V1369.55L1034.54 1369.51L1034.5 1372.01ZM1034.5 1545.99L1034.54 1548.49L1037 1548.45V1545.99H1034.5ZM1034.5 1490.6H1037V1487.98L1034.38 1488.1L1034.5 1490.6ZM1034.5 1427.4L1034.38 1429.9L1037 1430.02V1427.4H1034.5ZM1033 1374.5C1033.49 1374.5 1033.97 1374.5 1034.46 1374.51L1034.54 1369.51C1034.03 1369.5 1033.52 1369.5 1033 1369.5V1374.5ZM948.5 1459C948.5 1412.33 986.332 1374.5 1033 1374.5V1369.5C983.571 1369.5 943.5 1409.57 943.5 1459H948.5ZM1033 1543.5C986.332 1543.5 948.5 1505.67 948.5 1459H943.5C943.5 1508.43 983.571 1548.5 1033 1548.5V1543.5ZM1034.46 1543.49C1033.97 1543.5 1033.49 1543.5 1033 1543.5V1548.5C1033.52 1548.5 1034.03 1548.5 1034.54 1548.49L1034.46 1543.49ZM1037 1545.99V1490.6H1032V1545.99H1037ZM1033 1493.14C1033.54 1493.14 1034.08 1493.12 1034.62 1493.1L1034.38 1488.1C1033.93 1488.13 1033.46 1488.14 1033 1488.14V1493.14ZM998.864 1459C998.864 1477.85 1014.15 1493.14 1033 1493.14V1488.14C1016.91 1488.14 1003.86 1475.09 1003.86 1459H998.864ZM1033 1424.86C1014.15 1424.86 998.864 1440.15 998.864 1459H1003.86C1003.86 1442.91 1016.91 1429.86 1033 1429.86V1424.86ZM1034.62 1424.9C1034.08 1424.88 1033.54 1424.86 1033 1424.86V1429.86C1033.46 1429.86 1033.93 1429.87 1034.38 1429.9L1034.62 1424.9ZM1037 1427.4V1372.01H1032V1427.4H1037Z" fill="#52B86A"/>
<path fill-rule="evenodd" clip-rule="evenodd" d="M683 431C691.837 431 699 423.837 699 415C699 406.163 691.837 399 683 399C674.163 399 667 406.163 667 415C667 423.837 674.163 431 683 431Z" fill="#D8D8D8"/>
<path fill-rule="evenodd" clip-rule="evenodd" d="M767 629C775.837 629 783 621.837 783 613C783 604.163 775.837 597 767 597C758.163 597 751 604.163 751 613C751 621.837 758.163 629 767 629Z" fill="#D8D8D8"/>
<path fill-rule="evenodd" clip-rule="evenodd" d="M833 752C841.837 752 849 744.837 849 736C849 727.163 841.837 720 833 720C824.163 720 817 727.163 817 736C817 744.837 824.163 752 833 752Z" fill="#D8D8D8"/>
<path fill-rule="evenodd" clip-rule="evenodd" d="M900 1126C908.837 1126 916 1118.84 916 1110C916 1101.16 908.837 1094 900 1094C891.163 1094 884 1101.16 884 1110C884 1118.84 891.163 1126 900 1126Z" fill="#D8D8D8"/>
<path fill-rule="evenodd" clip-rule="evenodd" d="M680 1229C688.837 1229 696 1221.84 696 1213C696 1204.16 688.837 1197 680 1197C671.163 1197 664 1204.16 664 1213C664 1221.84 671.163 1229 680 1229Z" fill="#D8D8D8"/>
<path fill-rule="evenodd" clip-rule="evenodd" d="M83 1293C91.8366 1293 99 1285.84 99 1277C99 1268.16 91.8366 1261 83 1261C74.1634 1261 67 1268.16 67 1277C67 1285.84 74.1634 1293 83 1293Z" fill="#D8D8D8"/>
<path fill-rule="evenodd" clip-rule="evenodd" d="M345 1358C353.837 1358 361 1350.84 361 1342C361 1333.16 353.837 1326 345 1326C336.163 1326 329 1333.16 329 1342C329 1350.84 336.163 1358 345 1358Z" fill="#D8D8D8"/>
<path fill-rule="evenodd" clip-rule="evenodd" d="M608 1554C616.837 1554 624 1546.84 624 1538C624 1529.16 616.837 1522 608 1522C599.163 1522 592 1529.16 592 1538C592 1546.84 599.163 1554 608 1554Z" fill="#D8D8D8"/>
<path fill-rule="evenodd" clip-rule="evenodd" d="M846 1523C854.837 1523 862 1515.84 862 1507C862 1498.16 854.837 1491 846 1491C837.163 1491 830 1498.16 830 1507C830 1515.84 837.163 1523 846 1523Z" fill="#D8D8D8"/>
<path fill-rule="evenodd" clip-rule="evenodd" d="M264 977C272.837 977 280 969.837 280 961C280 952.163 272.837 945 264 945C255.163 945 248 952.163 248 961C248 969.837 255.163 977 264 977Z" fill="#D8D8D8"/>
<path fill-rule="evenodd" clip-rule="evenodd" d="M585 506C593.837 506 601 498.837 601 490C601 481.163 593.837 474 585 474C576.163 474 569 481.163 569 490C569 498.837 576.163 506 585 506Z" fill="#D8D8D8"/>
<path fill-rule="evenodd" clip-rule="evenodd" d="M744 380C752.837 380 760 372.837 760 364C760 355.163 752.837 348 744 348C735.163 348 728 355.163 728 364C728 372.837 735.163 380 744 380Z" fill="#D8D8D8"/>
<path fill-rule="evenodd" clip-rule="evenodd" d="M187 611C195.837 611 203 603.837 203 595C203 586.163 195.837 579 187 579C178.163 579 171 586.163 171 595C171 603.837 178.163 611 187 611Z" fill="#D8D8D8"/>
<path fill-rule="evenodd" clip-rule="evenodd" d="M412 245C420.837 245 428 237.837 428 229C428 220.163 420.837 213 412 213C403.163 213 396 220.163 396 229C396 237.837 403.163 245 412 245Z" fill="#D8D8D8"/>
<path fill-rule="evenodd" clip-rule="evenodd" d="M957 342C965.837 342 973 334.837 973 326C973 317.163 965.837 310 957 310C948.163 310 941 317.163 941 326C941 334.837 948.163 342 957 342Z" fill="#D8D8D8"/>
<path fill-rule="evenodd" clip-rule="evenodd" d="M42 198C50.8366 198 58 190.837 58 182C58 173.163 50.8366 166 42 166C33.1634 166 26 173.163 26 182C26 190.837 33.1634 198 42 198Z" fill="#D8D8D8"/>
<path fill-rule="evenodd" clip-rule="evenodd" d="M651 141C659.837 141 667 133.837 667 125C667 116.163 659.837 109 651 109C642.163 109 635 116.163 635 125C635 133.837 642.163 141 651 141Z" fill="#D8D8D8"/>
<path fill-rule="evenodd" clip-rule="evenodd" d="M44 391C52.8366 391 60 383.837 60 375C60 366.163 52.8366 359 44 359C35.1634 359 28 366.163 28 375C28 383.837 35.1634 391 44 391Z" fill="#D8D8D8"/>
<path fill-rule="evenodd" clip-rule="evenodd" d="M145.238 534.25C145.246 533.751 145.25 533.251 145.25 532.75C145.25 484.701 106.299 445.75 58.2505 445.75C10.2017 445.75 -28.7495 484.701 -28.7495 532.75C-28.7495 533.251 -28.7453 533.751 -28.7368 534.25H26.6491C26.6259 533.752 26.6141 533.252 26.6141 532.75C26.6141 515.277 40.7782 501.113 58.2505 501.113C75.7228 501.113 89.8869 515.277 89.8869 532.75C89.8869 533.252 89.8751 533.752 89.8519 534.25H145.238Z" fill="#52B86A"/>
<path d="M145.238 534.25V536.75H147.696L147.737 534.292L145.238 534.25ZM-28.7368 534.25L-31.2365 534.292L-31.1949 536.75H-28.7368V534.25ZM26.6491 534.25V536.75H29.2685L29.1463 534.133L26.6491 534.25ZM89.8519 534.25L87.3546 534.133L87.2325 536.75H89.8519V534.25ZM142.75 532.75C142.75 533.236 142.746 533.722 142.738 534.207L147.737 534.292C147.746 533.779 147.75 533.265 147.75 532.75H142.75ZM58.2505 448.25C104.919 448.25 142.75 486.082 142.75 532.75H147.75C147.75 483.32 107.68 443.25 58.2505 443.25V448.25ZM-26.2495 532.75C-26.2495 486.082 11.5824 448.25 58.2505 448.25V443.25C8.82101 443.25 -31.2495 483.32 -31.2495 532.75H-26.2495ZM-26.2372 534.207C-26.2454 533.722 -26.2495 533.237 -26.2495 532.75H-31.2495C-31.2495 533.265 -31.2452 533.779 -31.2365 534.292L-26.2372 534.207ZM-28.7368 536.75H26.6491V531.75H-28.7368V536.75ZM24.1141 532.75C24.1141 533.291 24.1268 533.83 24.1518 534.366L29.1463 534.133C29.1249 533.675 29.1141 533.213 29.1141 532.75H24.1141ZM58.2505 498.613C39.3975 498.613 24.1141 513.897 24.1141 532.75H29.1141C29.1141 516.658 42.1589 503.613 58.2505 503.613V498.613ZM92.3869 532.75C92.3869 513.897 77.1035 498.613 58.2505 498.613V503.613C74.3421 503.613 87.3869 516.658 87.3869 532.75H92.3869ZM92.3492 534.366C92.3742 533.83 92.3869 533.291 92.3869 532.75H87.3869C87.3869 533.213 87.376 533.675 87.3546 534.133L92.3492 534.366ZM89.8519 536.75H145.238V531.75H89.8519V536.75Z" fill="#52B86A"/>
<path fill-rule="evenodd" clip-rule="evenodd" d="M323.001 1283.99C323.5 1284 324 1284 324.501 1284C372.55 1284 411.501 1245.05 411.501 1197C411.501 1148.95 372.55 1110 324.501 1110C324 1110 323.5 1110 323.001 1110.01V1165.4C323.498 1165.38 323.998 1165.36 324.501 1165.36C341.973 1165.36 356.137 1179.53 356.137 1197C356.137 1214.47 341.973 1228.64 324.501 1228.64C323.998 1228.64 323.498 1228.62 323.001 1228.6V1283.99Z" fill="#52B86A"/>
<path d="M323.001 1283.99H320.501V1286.45L322.959 1286.49L323.001 1283.99ZM323.001 1110.01L322.959 1107.51L320.501 1107.55V1110.01H323.001ZM323.001 1165.4H320.501V1168.02L323.118 1167.9L323.001 1165.4ZM323.001 1228.6L323.118 1226.1L320.501 1225.98V1228.6H323.001ZM324.501 1281.5C324.014 1281.5 323.528 1281.5 323.043 1281.49L322.959 1286.49C323.472 1286.5 323.986 1286.5 324.501 1286.5V1281.5ZM409.001 1197C409.001 1243.67 371.169 1281.5 324.501 1281.5V1286.5C373.93 1286.5 414.001 1246.43 414.001 1197H409.001ZM324.501 1112.5C371.169 1112.5 409.001 1150.33 409.001 1197H414.001C414.001 1147.57 373.93 1107.5 324.501 1107.5V1112.5ZM323.043 1112.51C323.528 1112.5 324.014 1112.5 324.501 1112.5V1107.5C323.986 1107.5 323.472 1107.5 322.959 1107.51L323.043 1112.51ZM320.501 1110.01V1165.4H325.501V1110.01H320.501ZM324.501 1162.86C323.959 1162.86 323.42 1162.88 322.884 1162.9L323.118 1167.9C323.576 1167.87 324.037 1167.86 324.501 1167.86V1162.86ZM358.637 1197C358.637 1178.15 343.354 1162.86 324.501 1162.86V1167.86C340.593 1167.86 353.637 1180.91 353.637 1197H358.637ZM324.501 1231.14C343.354 1231.14 358.637 1215.85 358.637 1197H353.637C353.637 1213.09 340.593 1226.14 324.501 1226.14V1231.14ZM322.884 1231.1C323.42 1231.12 323.959 1231.14 324.501 1231.14V1226.14C324.037 1226.14 323.576 1226.13 323.118 1226.1L322.884 1231.1ZM320.501 1228.6V1283.99H325.501V1228.6H320.501Z" fill="#52B86A"/>
<path fill-rule="evenodd" clip-rule="evenodd" d="M503.001 94.9873C503.5 94.9958 504 95 504.501 95C552.55 95 591.501 56.0488 591.501 8C591.501 -40.0488 552.55 -79 504.501 -79C504 -79 503.5 -78.9958 503.001 -78.9873V-23.6014C503.498 -23.6246 503.998 -23.6364 504.501 -23.6364C521.973 -23.6364 536.137 -9.47228 536.137 8C536.137 25.4723 521.973 39.6364 504.501 39.6364C503.998 39.6364 503.498 39.6246 503.001 39.6014V94.9873Z" fill="#52B86A"/>
<path d="M503.001 94.9873H500.501V97.4454L502.959 97.487L503.001 94.9873ZM503.001 -78.9873L502.959 -81.487L500.501 -81.4454V-78.9873H503.001ZM503.001 -23.6014H500.501V-20.982L503.118 -21.1041L503.001 -23.6014ZM503.001 39.6014L503.118 37.1041L500.501 36.982V39.6014H503.001ZM504.501 92.5C504.014 92.5 503.528 92.4959 503.043 92.4877L502.959 97.487C503.472 97.4956 503.986 97.5 504.501 97.5V92.5ZM589.001 8C589.001 54.6681 551.169 92.5 504.501 92.5V97.5C553.93 97.5 594.001 57.4295 594.001 8H589.001ZM504.501 -76.5C551.169 -76.5 589.001 -38.6681 589.001 8H594.001C594.001 -41.4295 553.93 -81.5 504.501 -81.5V-76.5ZM503.043 -76.4877C503.528 -76.4959 504.014 -76.5 504.501 -76.5V-81.5C503.986 -81.5 503.472 -81.4957 502.959 -81.487L503.043 -76.4877ZM500.501 -78.9873V-23.6014H505.501V-78.9873H500.501ZM504.501 -26.1364C503.959 -26.1364 503.42 -26.1237 502.884 -26.0987L503.118 -21.1041C503.576 -21.1255 504.037 -21.1364 504.501 -21.1364V-26.1364ZM538.637 8C538.637 -10.853 523.354 -26.1364 504.501 -26.1364V-21.1364C520.593 -21.1364 533.637 -8.09157 533.637 8H538.637ZM504.501 42.1364C523.354 42.1364 538.637 26.853 538.637 8H533.637C533.637 24.0916 520.593 37.1364 504.501 37.1364V42.1364ZM502.884 42.0987C503.42 42.1237 503.959 42.1364 504.501 42.1364V37.1364C504.037 37.1364 503.576 37.1255 503.118 37.1041L502.884 42.0987ZM500.501 39.6014V94.9873H505.501V39.6014L500.501 39.6014Z" fill="#52B86A"/>
<path fill-rule="evenodd" clip-rule="evenodd" d="M728.263 1153.75C728.255 1154.25 728.25 1154.75 728.25 1155.25C728.25 1203.3 767.202 1242.25 815.25 1242.25C863.299 1242.25 902.25 1203.3 902.25 1155.25C902.25 1154.75 902.246 1154.25 902.238 1153.75H846.852C846.875 1154.25 846.887 1154.75 846.887 1155.25C846.887 1172.72 832.723 1186.89 815.25 1186.89C797.778 1186.89 783.614 1172.72 783.614 1155.25C783.614 1154.75 783.626 1154.25 783.649 1153.75H728.263Z" fill="#52B86A"/>
<path d="M728.263 1153.75V1151.25H725.805L725.764 1153.71L728.263 1153.75ZM902.238 1153.75L904.737 1153.71L904.696 1151.25H902.238V1153.75ZM846.852 1153.75V1151.25H844.233L844.355 1153.87L846.852 1153.75ZM783.649 1153.75L786.146 1153.87L786.268 1151.25H783.649V1153.75ZM730.75 1155.25C730.75 1154.76 730.755 1154.28 730.763 1153.79L725.764 1153.71C725.755 1154.22 725.75 1154.74 725.75 1155.25H730.75ZM815.25 1239.75C768.582 1239.75 730.75 1201.92 730.75 1155.25H725.75C725.75 1204.68 765.821 1244.75 815.25 1244.75V1239.75ZM899.75 1155.25C899.75 1201.92 861.919 1239.75 815.25 1239.75V1244.75C864.68 1244.75 904.75 1204.68 904.75 1155.25H899.75ZM899.738 1153.79C899.746 1154.28 899.75 1154.76 899.75 1155.25H904.75C904.75 1154.74 904.746 1154.22 904.737 1153.71L899.738 1153.79ZM902.238 1151.25H846.852V1156.25H902.238V1151.25ZM849.387 1155.25C849.387 1154.71 849.374 1154.17 849.349 1153.63L844.355 1153.87C844.376 1154.33 844.387 1154.79 844.387 1155.25H849.387ZM815.25 1189.39C834.103 1189.39 849.387 1174.1 849.387 1155.25H844.387C844.387 1171.34 831.342 1184.39 815.25 1184.39V1189.39ZM781.114 1155.25C781.114 1174.1 796.397 1189.39 815.25 1189.39V1184.39C799.159 1184.39 786.114 1171.34 786.114 1155.25H781.114ZM781.152 1153.63C781.127 1154.17 781.114 1154.71 781.114 1155.25H786.114C786.114 1154.79 786.125 1154.33 786.146 1153.87L781.152 1153.63ZM783.649 1151.25H728.263V1156.25H783.649V1151.25Z" fill="#52B86A"/>
<path fill-rule="evenodd" clip-rule="evenodd" d="M691.263 200.75C691.255 201.249 691.25 201.749 691.25 202.25C691.25 250.299 730.202 289.25 778.25 289.25C826.299 289.25 865.25 250.299 865.25 202.25C865.25 201.749 865.246 201.249 865.238 200.75H809.852C809.875 201.248 809.887 201.748 809.887 202.25C809.887 219.723 795.723 233.887 778.25 233.887C760.778 233.887 746.614 219.723 746.614 202.25C746.614 201.748 746.626 201.248 746.649 200.75H691.263Z" fill="#52B86A"/>
<path d="M691.263 200.75V198.25H688.805L688.764 200.708L691.263 200.75ZM865.238 200.75L867.737 200.708L867.696 198.25H865.238V200.75ZM809.852 200.75V198.25H807.233L807.355 200.867L809.852 200.75ZM746.649 200.75L749.146 200.867L749.268 198.25H746.649V200.75ZM693.75 202.25C693.75 201.764 693.755 201.278 693.763 200.793L688.764 200.708C688.755 201.221 688.75 201.735 688.75 202.25H693.75ZM778.25 286.75C731.582 286.75 693.75 248.918 693.75 202.25H688.75C688.75 251.68 728.821 291.75 778.25 291.75V286.75ZM862.75 202.25C862.75 248.918 824.919 286.75 778.25 286.75V291.75C827.68 291.75 867.75 251.68 867.75 202.25H862.75ZM862.738 200.793C862.746 201.278 862.75 201.763 862.75 202.25H867.75C867.75 201.735 867.746 201.221 867.737 200.708L862.738 200.793ZM865.238 198.25H809.852V203.25H865.238V198.25ZM812.387 202.25C812.387 201.709 812.374 201.17 812.349 200.634L807.355 200.867C807.376 201.325 807.387 201.787 807.387 202.25H812.387ZM778.25 236.387C797.103 236.387 812.387 221.103 812.387 202.25H807.387C807.387 218.342 794.342 231.387 778.25 231.387V236.387ZM744.114 202.25C744.114 221.103 759.397 236.387 778.25 236.387V231.387C762.159 231.387 749.114 218.342 749.114 202.25H744.114ZM744.152 200.634C744.127 201.17 744.114 201.709 744.114 202.25H749.114C749.114 201.787 749.125 201.325 749.146 200.867L744.152 200.634ZM746.649 198.25H691.263V203.25H746.649V198.25Z" fill="#52B86A"/>
<path fill-rule="evenodd" clip-rule="evenodd" d="M735.215 925.25C735.239 924.419 735.25 923.586 735.25 922.75C735.25 874.701 696.299 835.75 648.25 835.75C600.202 835.75 561.25 874.701 561.25 922.75C561.25 923.586 561.262 924.419 561.286 925.25H616.711C616.647 924.425 616.614 923.591 616.614 922.75C616.614 905.277 630.778 891.113 648.25 891.113C665.723 891.113 679.887 905.277 679.887 922.75C679.887 923.591 679.854 924.425 679.79 925.25H735.215Z" fill="#52B86A"/>
<path d="M735.215 925.25V927.75H737.646L737.714 925.32L735.215 925.25ZM561.286 925.25L558.787 925.32L558.855 927.75H561.286V925.25ZM616.711 925.25V927.75H619.415L619.204 925.055L616.711 925.25ZM679.79 925.25L677.297 925.055L677.086 927.75H679.79V925.25ZM732.75 922.75C732.75 923.562 732.739 924.372 732.716 925.179L737.714 925.32C737.738 924.466 737.75 923.609 737.75 922.75H732.75ZM648.25 838.25C694.919 838.25 732.75 876.081 732.75 922.75H737.75C737.75 873.32 697.68 833.25 648.25 833.25V838.25ZM563.75 922.75C563.75 876.081 601.582 838.25 648.25 838.25V833.25C598.821 833.25 558.75 873.32 558.75 922.75H563.75ZM563.785 925.179C563.762 924.372 563.75 923.562 563.75 922.75H558.75C558.75 923.609 558.763 924.466 558.787 925.32L563.785 925.179ZM561.286 927.75H616.711V922.75H561.286V927.75ZM614.114 922.75C614.114 923.656 614.15 924.555 614.219 925.444L619.204 925.055C619.144 924.295 619.114 923.526 619.114 922.75H614.114ZM648.25 888.613C629.397 888.613 614.114 903.897 614.114 922.75H619.114C619.114 906.658 632.159 893.613 648.25 893.613V888.613ZM682.387 922.75C682.387 903.897 667.103 888.613 648.25 888.613V893.613C664.342 893.613 677.387 906.658 677.387 922.75H682.387ZM682.282 925.444C682.351 924.555 682.387 923.656 682.387 922.75H677.387C677.387 923.526 677.357 924.295 677.297 925.055L682.282 925.444ZM679.79 927.75H735.215V922.75H679.79V927.75Z" fill="#52B86A"/>
<path fill-rule="evenodd" clip-rule="evenodd" d="M77.2378 1214.25C77.2463 1213.75 77.2505 1213.25 77.2505 1212.75C77.2505 1164.7 38.2993 1125.75 -9.74951 1125.75C-57.7983 1125.75 -96.7495 1164.7 -96.7495 1212.75C-96.7495 1213.25 -96.7453 1213.75 -96.7368 1214.25H-41.3509C-41.3741 1213.75 -41.3859 1213.25 -41.3859 1212.75C-41.3859 1195.28 -27.2218 1181.11 -9.74951 1181.11C7.72277 1181.11 21.8869 1195.28 21.8869 1212.75C21.8869 1213.25 21.8751 1213.75 21.8519 1214.25H77.2378Z" fill="#52B86A"/>
<path d="M77.2378 1214.25V1216.75H79.6959L79.7375 1214.29L77.2378 1214.25ZM-96.7368 1214.25L-99.2365 1214.29L-99.1949 1216.75H-96.7368V1214.25ZM-41.3509 1214.25V1216.75H-38.7315L-38.8537 1214.13L-41.3509 1214.25ZM21.8519 1214.25L19.3546 1214.13L19.2325 1216.75H21.8519V1214.25ZM74.7505 1212.75C74.7505 1213.24 74.7464 1213.72 74.7382 1214.21L79.7375 1214.29C79.7461 1213.78 79.7505 1213.26 79.7505 1212.75H74.7505ZM-9.74951 1128.25C36.9186 1128.25 74.7505 1166.08 74.7505 1212.75H79.7505C79.7505 1163.32 39.68 1123.25 -9.74951 1123.25V1128.25ZM-94.2495 1212.75C-94.2495 1166.08 -56.4176 1128.25 -9.74951 1128.25V1123.25C-59.179 1123.25 -99.2495 1163.32 -99.2495 1212.75H-94.2495ZM-94.2372 1214.21C-94.2454 1213.72 -94.2495 1213.24 -94.2495 1212.75H-99.2495C-99.2495 1213.26 -99.2452 1213.78 -99.2365 1214.29L-94.2372 1214.21ZM-96.7368 1216.75H-41.3509V1211.75H-96.7368V1216.75ZM-43.8859 1212.75C-43.8859 1213.29 -43.8732 1213.83 -43.8482 1214.37L-38.8537 1214.13C-38.8751 1213.67 -38.8859 1213.21 -38.8859 1212.75H-43.8859ZM-9.74951 1178.61C-28.6025 1178.61 -43.8859 1193.9 -43.8859 1212.75H-38.8859C-38.8859 1196.66 -25.8411 1183.61 -9.74951 1183.61V1178.61ZM24.3869 1212.75C24.3869 1193.9 9.10349 1178.61 -9.74951 1178.61V1183.61C6.34206 1183.61 19.3869 1196.66 19.3869 1212.75H24.3869ZM24.3492 1214.37C24.3742 1213.83 24.3869 1213.29 24.3869 1212.75H19.3869C19.3869 1213.21 19.376 1213.67 19.3546 1214.13L24.3492 1214.37ZM21.8519 1216.75H77.2378V1211.75H21.8519V1216.75Z" fill="#52B86A"/>
<path fill-rule="evenodd" clip-rule="evenodd" d="M1120.25 1074.5C1120.26 1074 1120.26 1073.5 1120.26 1073C1120.26 1024.95 1081.31 986 1033.26 986C985.214 986 946.263 1024.95 946.263 1073C946.263 1073.5 946.267 1074 946.276 1074.5H1001.66C1001.64 1074 1001.63 1073.5 1001.63 1073C1001.63 1055.53 1015.79 1041.36 1033.26 1041.36C1050.74 1041.36 1064.9 1055.53 1064.9 1073C1064.9 1073.5 1064.89 1074 1064.86 1074.5H1120.25Z" fill="#52B86A"/>
<path d="M1120.25 1074.5V1077H1122.71L1122.75 1074.54L1120.25 1074.5ZM946.276 1074.5L943.776 1074.54L943.818 1077H946.276V1074.5ZM1001.66 1074.5V1077H1004.28L1004.16 1074.38L1001.66 1074.5ZM1064.86 1074.5L1062.37 1074.38L1062.25 1077H1064.86V1074.5ZM1117.76 1073C1117.76 1073.49 1117.76 1073.97 1117.75 1074.46L1122.75 1074.54C1122.76 1074.03 1122.76 1073.52 1122.76 1073H1117.76ZM1033.26 988.5C1079.93 988.5 1117.76 1026.33 1117.76 1073H1122.76C1122.76 1023.57 1082.69 983.5 1033.26 983.5V988.5ZM948.763 1073C948.763 1026.33 986.595 988.5 1033.26 988.5V983.5C983.834 983.5 943.763 1023.57 943.763 1073H948.763ZM948.775 1074.46C948.767 1073.97 948.763 1073.49 948.763 1073H943.763C943.763 1073.52 943.768 1074.03 943.776 1074.54L948.775 1074.46ZM946.276 1077H1001.66V1072H946.276V1077ZM999.127 1073C999.127 1073.54 999.139 1074.08 999.164 1074.62L1004.16 1074.38C1004.14 1073.93 1004.13 1073.46 1004.13 1073H999.127ZM1033.26 1038.86C1014.41 1038.86 999.127 1054.15 999.127 1073H1004.13C1004.13 1056.91 1017.17 1043.86 1033.26 1043.86V1038.86ZM1067.4 1073C1067.4 1054.15 1052.12 1038.86 1033.26 1038.86V1043.86C1049.35 1043.86 1062.4 1056.91 1062.4 1073H1067.4ZM1067.36 1074.62C1067.39 1074.08 1067.4 1073.54 1067.4 1073H1062.4C1062.4 1073.46 1062.39 1073.93 1062.37 1074.38L1067.36 1074.62ZM1064.86 1077H1120.25V1072H1064.86V1077Z" fill="#52B86A"/>
<path fill-rule="evenodd" clip-rule="evenodd" d="M275.238 1438.25C275.246 1437.75 275.25 1437.25 275.25 1436.75C275.25 1388.7 236.299 1349.75 188.25 1349.75C140.202 1349.75 101.25 1388.7 101.25 1436.75C101.25 1437.25 101.255 1437.75 101.263 1438.25H156.649C156.626 1437.75 156.614 1437.25 156.614 1436.75C156.614 1419.28 170.778 1405.11 188.25 1405.11C205.723 1405.11 219.887 1419.28 219.887 1436.75C219.887 1437.25 219.875 1437.75 219.852 1438.25H275.238Z" fill="#52B86A"/>
<path d="M275.238 1438.25V1440.75H277.696L277.737 1438.29L275.238 1438.25ZM101.263 1438.25L98.7635 1438.29L98.8051 1440.75H101.263V1438.25ZM156.649 1438.25V1440.75H159.268L159.146 1438.13L156.649 1438.25ZM219.852 1438.25L217.355 1438.13L217.233 1440.75H219.852V1438.25ZM272.75 1436.75C272.75 1437.24 272.746 1437.72 272.738 1438.21L277.737 1438.29C277.746 1437.78 277.75 1437.26 277.75 1436.75H272.75ZM188.25 1352.25C234.919 1352.25 272.75 1390.08 272.75 1436.75H277.75C277.75 1387.32 237.68 1347.25 188.25 1347.25V1352.25ZM103.75 1436.75C103.75 1390.08 141.582 1352.25 188.25 1352.25V1347.25C138.821 1347.25 98.7505 1387.32 98.7505 1436.75H103.75ZM103.763 1438.21C103.755 1437.72 103.75 1437.24 103.75 1436.75H98.7505C98.7505 1437.26 98.7548 1437.78 98.7635 1438.29L103.763 1438.21ZM101.263 1440.75H156.649V1435.75H101.263V1440.75ZM154.114 1436.75C154.114 1437.29 154.127 1437.83 154.152 1438.37L159.146 1438.13C159.125 1437.67 159.114 1437.21 159.114 1436.75H154.114ZM188.25 1402.61C169.397 1402.61 154.114 1417.9 154.114 1436.75H159.114C159.114 1420.66 172.159 1407.61 188.25 1407.61V1402.61ZM222.387 1436.75C222.387 1417.9 207.103 1402.61 188.25 1402.61V1407.61C204.342 1407.61 217.387 1420.66 217.387 1436.75H222.387ZM222.349 1438.37C222.374 1437.83 222.387 1437.29 222.387 1436.75H217.387C217.387 1437.21 217.376 1437.67 217.355 1438.13L222.349 1438.37ZM219.852 1440.75H275.238V1435.75H219.852V1440.75Z" fill="#52B86A"/>
<path fill-rule="evenodd" clip-rule="evenodd" d="M821.238 1635.25C821.246 1634.75 821.25 1634.25 821.25 1633.75C821.25 1585.7 782.299 1546.75 734.25 1546.75C686.202 1546.75 647.25 1585.7 647.25 1633.75C647.25 1634.25 647.255 1634.75 647.263 1635.25H702.649C702.626 1634.75 702.614 1634.25 702.614 1633.75C702.614 1616.28 716.778 1602.11 734.25 1602.11C751.723 1602.11 765.887 1616.28 765.887 1633.75C765.887 1634.25 765.875 1634.75 765.852 1635.25H821.238Z" fill="#52B86A"/>
<path d="M821.238 1635.25V1637.75H823.696L823.737 1635.29L821.238 1635.25ZM647.263 1635.25L644.764 1635.29L644.805 1637.75H647.263V1635.25ZM702.649 1635.25V1637.75H705.268L705.146 1635.13L702.649 1635.25ZM765.852 1635.25L763.355 1635.13L763.233 1637.75H765.852V1635.25ZM818.75 1633.75C818.75 1634.24 818.746 1634.72 818.738 1635.21L823.737 1635.29C823.746 1634.78 823.75 1634.26 823.75 1633.75H818.75ZM734.25 1549.25C780.919 1549.25 818.75 1587.08 818.75 1633.75H823.75C823.75 1584.32 783.68 1544.25 734.25 1544.25V1549.25ZM649.75 1633.75C649.75 1587.08 687.582 1549.25 734.25 1549.25V1544.25C684.821 1544.25 644.75 1584.32 644.75 1633.75H649.75ZM649.763 1635.21C649.755 1634.72 649.75 1634.24 649.75 1633.75H644.75C644.75 1634.26 644.755 1634.78 644.764 1635.29L649.763 1635.21ZM647.263 1637.75H702.649V1632.75H647.263V1637.75ZM700.114 1633.75C700.114 1634.29 700.127 1634.83 700.152 1635.37L705.146 1635.13C705.125 1634.67 705.114 1634.21 705.114 1633.75H700.114ZM734.25 1599.61C715.397 1599.61 700.114 1614.9 700.114 1633.75H705.114C705.114 1617.66 718.159 1604.61 734.25 1604.61V1599.61ZM768.387 1633.75C768.387 1614.9 753.103 1599.61 734.25 1599.61V1604.61C750.342 1604.61 763.387 1617.66 763.387 1633.75H768.387ZM768.349 1635.37C768.374 1634.83 768.387 1634.29 768.387 1633.75H763.387C763.387 1634.21 763.376 1634.67 763.355 1635.13L768.349 1635.37ZM765.852 1637.75H821.238V1632.75H765.852V1637.75Z" fill="#52B86A"/>
<path fill-rule="evenodd" clip-rule="evenodd" d="M335 869C372.003 869 402 839.003 402 802C402 764.997 372.003 735 335 735C297.997 735 268 764.997 268 802C268 839.003 297.997 869 335 869Z" fill="#FFD500"/>
<rect x="-55.5679" y="874.917" width="40" height="128" transform="rotate(-57 -55.5679 874.917)" fill="#D8D8D8"/>
<rect x="439.432" y="1307.92" width="40" height="128" transform="rotate(-57 439.432 1307.92)" fill="#D8D8D8"/>
<rect x="700.432" y="65.9165" width="40" height="128" transform="rotate(-57 700.432 65.9165)" fill="#D8D8D8"/>
<rect x="197.432" y="233.917" width="40" height="128" transform="rotate(-57 197.432 233.917)" fill="#D8D8D8"/>
<path fill-rule="evenodd" clip-rule="evenodd" d="M16 1086C24.8366 1086 32 1078.84 32 1070C32 1061.16 24.8366 1054 16 1054C7.16344 1054 0 1061.16 0 1070C0 1078.84 7.16344 1086 16 1086Z" fill="#D8D8D8"/>
</g>
</svg>
