<svg xmlns="http://www.w3.org/2000/svg" xmlns:xlink="http://www.w3.org/1999/xlink" width="634" height="358" viewBox="0 0 634 358"><defs><mask id="a" x="0.92" y="0.74" width="599.46" height="357.15" maskUnits="userSpaceOnUse"><path d="M.92,357.9h599V.9H.92Z" fill="#fff" fill-rule="evenodd"/></mask><mask id="b" x="0.92" y="0.9" width="599" height="357" maskUnits="userSpaceOnUse"><path d="M.92,357.9h599V.9H.92Z" fill="#fff" fill-rule="evenodd"/></mask></defs><path d="M56.67,101.68a53.82,53.82,0,0,1-20.19-3.8A52.28,52.28,0,0,1,19.84,87.31,49.53,49.53,0,0,1,8.61,71.62,45.7,45.7,0,0,1,4.55,52.45,46,46,0,0,1,8.61,33.19,49.43,49.43,0,0,1,19.84,17.47,52.73,52.73,0,0,1,36.43,6.9,53.43,53.43,0,0,1,56.61,3.1,55.69,55.69,0,0,1,73.26,5.58a46.77,46.77,0,0,1,13.53,6.5L78.73,27.92a28.63,28.63,0,0,0-9.39-4.78,38.58,38.58,0,0,0-11.57-1.73,35.85,35.85,0,0,0-13.11,2.34,31.7,31.7,0,0,0-10.48,6.56,30.41,30.41,0,0,0,0,44.16A31.88,31.88,0,0,0,44.66,81a36.06,36.06,0,0,0,13.11,2.33,38.58,38.58,0,0,0,11.57-1.73,28.63,28.63,0,0,0,9.39-4.78L86.79,92.7a48.94,48.94,0,0,1-13.27,6.42A54,54,0,0,1,56.67,101.68Z" fill="#170f7b" fill-rule="evenodd"/><g mask="url(#a)"><path d="M97.45,99.84h17.68v-59H97.45Zm8.81-71.23A10.17,10.17,0,0,1,101,27.2a10.57,10.57,0,0,1-3.8-3.83,10.33,10.33,0,0,1-1.41-5.3,9.88,9.88,0,0,1,1.44-5.24A11.06,11.06,0,0,1,101,9.06a10.44,10.44,0,0,1,10.48,0,11,11,0,0,1,3.8,3.77,9.88,9.88,0,0,1,1.44,5.24,10.17,10.17,0,0,1-1.44,5.3,10.81,10.81,0,0,1-3.8,3.83A10,10,0,0,1,106.26,28.61Z" fill="#170f7b" fill-rule="evenodd"/><path d="M151.53,99.84l-31-59H141.4l16.06,35.59,16.07-35.59h20.85l-31,59Z" fill="#170f7b" fill-rule="evenodd"/><path d="M199.68,99.84h17.68v-59H199.68Zm8.81-71.23a10.2,10.2,0,0,1-5.27-1.41,10.57,10.57,0,0,1-3.8-3.83,10.33,10.33,0,0,1-1.41-5.3,9.88,9.88,0,0,1,1.44-5.24,11.06,11.06,0,0,1,3.8-3.77,10.46,10.46,0,0,1,10.49,0,11.14,11.14,0,0,1,3.8,3.77A10,10,0,0,1,219,18.07a10.26,10.26,0,0,1-1.44,5.3,11,11,0,0,1-3.8,3.83A10.08,10.08,0,0,1,208.49,28.61Z" fill="#170f7b" fill-rule="evenodd"/><path d="M261.54,101.68a33.63,33.63,0,0,1-23.21-9.13,31.42,31.42,0,0,1-7.14-10,28.92,28.92,0,0,1-2.6-12.18A29.71,29.71,0,0,1,231,58.49a31.75,31.75,0,0,1,6.91-10,32.6,32.6,0,0,1,10.46-6.91,33.37,33.37,0,0,1,13-2.51,37.64,37.64,0,0,1,11,1.61,25.28,25.28,0,0,1,8.5,4.21L274.9,56.71a17.63,17.63,0,0,0-10.71-3.17,17.08,17.08,0,0,0-9.3,2.42,15.5,15.5,0,0,0-5.76,6.28,17.87,17.87,0,0,0-1.93,8.12,17.35,17.35,0,0,0,2.1,8.49,15.53,15.53,0,0,0,6,6.07,17.67,17.67,0,0,0,9,2.25,19.36,19.36,0,0,0,6-.89A16.67,16.67,0,0,0,274.9,84L281,95.86a29.16,29.16,0,0,1-8.5,4.15A35.24,35.24,0,0,1,261.54,101.68Z" fill="#170f7b" fill-rule="evenodd"/><path d="M315.91,101.68q-8.81,0-13.68-5.59t-4.87-15.66V54.29h-7.94V40.87h7.94v-22H315v22h13V54.29H315V79.11a8.29,8.29,0,0,0,1.32,5.07,4.58,4.58,0,0,0,3.86,1.72,8.86,8.86,0,0,0,5.3-1.84l4.44,14.17a29.29,29.29,0,0,1-6.71,2.53A30.47,30.47,0,0,1,315.91,101.68Z" fill="#170f7b" fill-rule="evenodd"/><path d="M354.44,62.87h27.48a13.12,13.12,0,0,0-2.45-5.9,12.4,12.4,0,0,0-4.75-3.77,15.3,15.3,0,0,0-6.51-1.33,16.28,16.28,0,0,0-6.8,1.33A11.83,11.83,0,0,0,356.66,57,12.07,12.07,0,0,0,354.44,62.87Zm14.8,38.81a35.19,35.19,0,0,1-17.16-4.15,31.53,31.53,0,0,1-12-11.2,29.63,29.63,0,0,1-4.38-16,30.35,30.35,0,0,1,9.45-22.26,32.75,32.75,0,0,1,10.42-6.68A34.16,34.16,0,0,1,368.44,39a33.21,33.21,0,0,1,16.16,3.8,27.38,27.38,0,0,1,10.82,10.63,31.81,31.81,0,0,1,3.95,15.8c0,.5-.07.94-.09,1.33s-.09,1.09-.2,2.13H353.87a14.78,14.78,0,0,0,2,7.8,13.85,13.85,0,0,0,5.73,5.24,18.7,18.7,0,0,0,8.58,1.87,17.41,17.41,0,0,0,8.12-1.81,23.24,23.24,0,0,0,6.86-5.73l12.73,6.45a29.1,29.1,0,0,1-11.75,11.11A35.58,35.58,0,0,1,369.24,101.68Z" fill="#170f7b" fill-rule="evenodd"/><path d="M441,101.68a33.63,33.63,0,0,1-23.21-9.13,31.73,31.73,0,0,1-7.14-10A28.91,28.91,0,0,1,408,70.41a29.7,29.7,0,0,1,2.44-11.92,31.78,31.78,0,0,1,6.92-10,32.56,32.56,0,0,1,10.45-6.91,33.39,33.39,0,0,1,13-2.51,37.68,37.68,0,0,1,11,1.61,25.32,25.32,0,0,1,8.49,4.21l-6.05,11.86a17.63,17.63,0,0,0-10.71-3.17A17.08,17.08,0,0,0,434.3,56a15.57,15.57,0,0,0-5.76,6.28,17.87,17.87,0,0,0-1.93,8.12,17.35,17.35,0,0,0,2.1,8.49,15.53,15.53,0,0,0,6,6.07,17.68,17.68,0,0,0,9,2.25,19.34,19.34,0,0,0,6-.89A16.67,16.67,0,0,0,454.31,84l6.05,11.86a29.22,29.22,0,0,1-8.49,4.15A35.35,35.35,0,0,1,441,101.68Z" fill="#170f7b" fill-rule="evenodd"/><path d="M470.32,99.84V.74h17.74V47.38a25.68,25.68,0,0,1,8.47-6A27,27,0,0,1,507.82,39,23.73,23.73,0,0,1,519.74,42a20.87,20.87,0,0,1,8.12,8.23,25,25,0,0,1,2.94,12.33V99.84H513.12V66.27q0-6.33-3.31-9.91t-9.08-3.57A13.19,13.19,0,0,0,494,54.43a11.8,11.8,0,0,0-4.38,4.35,12.13,12.13,0,0,0-1.56,6.16v34.9Z" fill="#170f7b" fill-rule="evenodd"/><path d="M56.67,215.31a53.82,53.82,0,0,1-20.19-3.8,52.63,52.63,0,0,1-16.64-10.57A49.53,49.53,0,0,1,8.61,185.25a47.52,47.52,0,0,1,0-38.44,49.55,49.55,0,0,1,11.23-15.72,52.53,52.53,0,0,1,16.59-10.56,53.43,53.43,0,0,1,20.18-3.8,55.69,55.69,0,0,1,16.65,2.47,46.78,46.78,0,0,1,13.53,6.51l-8.06,15.83a28.81,28.81,0,0,0-9.39-4.77A38.58,38.58,0,0,0,57.77,135a36.06,36.06,0,0,0-13.11,2.33,31.86,31.86,0,0,0-10.48,6.56,30.43,30.43,0,0,0,0,44.17,31.7,31.7,0,0,0,10.48,6.56A35.85,35.85,0,0,0,57.77,197a38.58,38.58,0,0,0,11.57-1.72,28.83,28.83,0,0,0,9.39-4.78l8.06,15.83a48.36,48.36,0,0,1-13.27,6.42A54,54,0,0,1,56.67,215.31Z" fill="#170f7b" fill-rule="evenodd"/><path d="M97.45,213.46V114.37h17.74V161a25.39,25.39,0,0,1,8.47-6A26.83,26.83,0,0,1,135,152.66a23.75,23.75,0,0,1,11.92,2.94,20.94,20.94,0,0,1,8.12,8.23,25,25,0,0,1,2.94,12.32v37.31H140.24V179.89q0-6.33-3.31-9.9a11.77,11.77,0,0,0-9.07-3.57,13.22,13.22,0,0,0-6.74,1.64,11.72,11.72,0,0,0-4.38,4.35,12.2,12.2,0,0,0-1.55,6.16v34.89Z" fill="#170f7b" fill-rule="evenodd"/><path d="M203.14,200.28a15.68,15.68,0,0,0,8.15-2.1,15.21,15.21,0,0,0,5.58-5.76,18.34,18.34,0,0,0,0-16.85,15.12,15.12,0,0,0-5.58-5.78,16.81,16.81,0,0,0-16.27,0,15.3,15.3,0,0,0-5.65,5.78A16.91,16.91,0,0,0,187.3,184a16.73,16.73,0,0,0,2.07,8.35,15.37,15.37,0,0,0,13.77,7.95Zm-5.24,15a27.88,27.88,0,0,1-14.78-4.06,29.37,29.37,0,0,1-10.54-11.17,35.65,35.65,0,0,1-.11-32.13,29,29,0,0,1,10.37-11.18,27.85,27.85,0,0,1,15.06-4.11,28.9,28.9,0,0,1,11.72,2.39,23.29,23.29,0,0,1,8.9,6.65v-7.2H236.2v59H218.52v-7.77a28.7,28.7,0,0,1-9.28,7.11A25.93,25.93,0,0,1,197.9,215.31Z" fill="#170f7b" fill-rule="evenodd"/><path d="M252.67,213.46h17.74v-99H252.67Z" fill="#170f7b" fill-rule="evenodd"/><path d="M286.88,213.46h17.74v-99H286.88Z" fill="#170f7b" fill-rule="evenodd"/><path d="M334.69,176.5h27.47a13.08,13.08,0,0,0-2.45-5.9,12.42,12.42,0,0,0-4.75-3.78,15.45,15.45,0,0,0-6.51-1.32,16.47,16.47,0,0,0-6.8,1.32,11.59,11.59,0,0,0-7,9.68Zm14.8,38.81a35.32,35.32,0,0,1-17.17-4.15,31.68,31.68,0,0,1-12-11.2A29.66,29.66,0,0,1,316,184a30.29,30.29,0,0,1,9.44-22.25,32.51,32.51,0,0,1,10.43-6.68,34.1,34.1,0,0,1,12.84-2.39,33.18,33.18,0,0,1,16.16,3.8,27.38,27.38,0,0,1,10.83,10.62,31.84,31.84,0,0,1,3.94,15.81q-.06.75-.09,1.32c0,.39-.08,1.1-.2,2.13H334.11a14.79,14.79,0,0,0,2,7.81,13.92,13.92,0,0,0,5.74,5.23,18.64,18.64,0,0,0,8.58,1.88,17.44,17.44,0,0,0,8.12-1.82,23.34,23.34,0,0,0,6.85-5.73l12.73,6.45a29.12,29.12,0,0,1-11.75,11.12A35.66,35.66,0,0,1,349.49,215.31Z" fill="#170f7b" fill-rule="evenodd"/><path d="M391.24,213.46v-59H409V161a25.39,25.39,0,0,1,8.47-6,26.87,26.87,0,0,1,11.29-2.33,23.73,23.73,0,0,1,11.92,2.94,20.8,20.8,0,0,1,8.12,8.23,25,25,0,0,1,2.94,12.32v37.31H434V179.89q0-6.33-3.31-9.87t-9.07-3.54a13.6,13.6,0,0,0-6.74,1.58,11.37,11.37,0,0,0-4.38,4.32,12.27,12.27,0,0,0-1.56,6.19v34.89Z" fill="#170f7b" fill-rule="evenodd"/><path d="M494.52,200.28a16,16,0,0,0,8.2-2.1,15.17,15.17,0,0,0,5.65-5.76,18.18,18.18,0,0,0,0-16.79,15.39,15.39,0,0,0-13.77-7.94,15.39,15.39,0,0,0-8.09,2.13,15.68,15.68,0,0,0-5.62,5.81,18.25,18.25,0,0,0-.05,16.79,14.92,14.92,0,0,0,5.58,5.76A15.73,15.73,0,0,0,494.52,200.28Zm-1.33,44.85q-11.93,0-20-4.37A26.29,26.29,0,0,1,461.34,228l14.46-7a16.88,16.88,0,0,0,7.08,6.45,22.2,22.2,0,0,0,10.25,2.41,18.68,18.68,0,0,0,8.79-2,14.77,14.77,0,0,0,5.9-5.56A16,16,0,0,0,510,214v-8.29a27.16,27.16,0,0,1-9.22,7.08,26.57,26.57,0,0,1-11.51,2.54,27.62,27.62,0,0,1-14.61-4,29.2,29.2,0,0,1-10.51-11.08,35.63,35.63,0,0,1-.08-32.3,29.06,29.06,0,0,1,10.48-11.17,28.34,28.34,0,0,1,15.18-4.09,27.79,27.79,0,0,1,11.52,2.39A23.47,23.47,0,0,1,510,161.7v-7.2h17.74v60.57a31.45,31.45,0,0,1-3.77,15.5,26.32,26.32,0,0,1-11.44,10.68Q504.83,245.14,493.19,245.13Z" fill="#170f7b" fill-rule="evenodd"/><path d="M555.45,176.5h27.47a13,13,0,0,0-2.45-5.9,12.35,12.35,0,0,0-4.75-3.78,15.45,15.45,0,0,0-6.51-1.32,16.42,16.42,0,0,0-6.79,1.32,11.85,11.85,0,0,0-4.75,3.78A12,12,0,0,0,555.45,176.5Zm14.8,38.81a35.31,35.31,0,0,1-17.16-4.15,31.61,31.61,0,0,1-12-11.2,29.66,29.66,0,0,1-4.38-16,30.35,30.35,0,0,1,9.45-22.25,32.47,32.47,0,0,1,10.42-6.68,34.12,34.12,0,0,1,12.85-2.39,33.14,33.14,0,0,1,16.15,3.8,27.25,27.25,0,0,1,10.83,10.62,31.74,31.74,0,0,1,3.94,15.81c0,.5-.06.94-.08,1.32s-.09,1.1-.2,2.13H554.87a14.71,14.71,0,0,0,2,7.81,13.83,13.83,0,0,0,5.73,5.23,18.7,18.7,0,0,0,8.58,1.88,17.44,17.44,0,0,0,8.12-1.82,23.37,23.37,0,0,0,6.86-5.73l12.72,6.45a29.06,29.06,0,0,1-11.75,11.12A35.63,35.63,0,0,1,570.25,215.31Z" fill="#170f7b" fill-rule="evenodd"/><path d="M56.67,328.93a53.62,53.62,0,0,1-20.19-3.8,52.43,52.43,0,0,1-16.64-10.56A49.65,49.65,0,0,1,8.61,298.88a47.52,47.52,0,0,1,0-38.44,49.43,49.43,0,0,1,11.23-15.72,52.73,52.73,0,0,1,16.59-10.57,53.43,53.43,0,0,1,20.18-3.8,55.69,55.69,0,0,1,16.65,2.48,46.52,46.52,0,0,1,13.53,6.51l-8.06,15.83a28.83,28.83,0,0,0-9.39-4.78,38.58,38.58,0,0,0-11.57-1.73A35.85,35.85,0,0,0,44.66,251a31.7,31.7,0,0,0-10.48,6.56,30.41,30.41,0,0,0,0,44.16,31.72,31.72,0,0,0,10.48,6.57,36.06,36.06,0,0,0,13.11,2.33,38.27,38.27,0,0,0,11.57-1.73,28.63,28.63,0,0,0,9.39-4.78L86.79,320a48.94,48.94,0,0,1-13.27,6.42A54,54,0,0,1,56.67,328.93Z" fill="#170f7b" fill-rule="evenodd"/><path d="M126.48,328.93q-16.19,0-23.3-6.39T96.07,301.7V268.13h17.68v29.36q0,9.33,2.85,13.16t9.88,3.83q6.92,0,9.79-3.83t2.88-13.16V268.13h17.68V301.7q0,14.44-7.08,20.84T126.48,328.93Z" fill="#170f7b" fill-rule="evenodd"/><path d="M202.79,313.9a15.9,15.9,0,0,0,8.12-2.07,14.68,14.68,0,0,0,5.59-5.76,17.25,17.25,0,0,0,2-8.4,16.88,16.88,0,0,0-2.07-8.41,15.53,15.53,0,0,0-5.61-5.82,15.31,15.31,0,0,0-8-2.13,15.71,15.71,0,0,0-8.15,2.13,15.22,15.22,0,0,0-5.64,5.79A18.25,18.25,0,0,0,189,306a15.07,15.07,0,0,0,5.61,5.76A15.84,15.84,0,0,0,202.79,313.9ZM169.62,357v-88.9h17.74v7.2a24,24,0,0,1,8.87-6.69,27.88,27.88,0,0,1,11.46-2.36,28.37,28.37,0,0,1,15.12,4.09,29.13,29.13,0,0,1,10.48,11.17,35.63,35.63,0,0,1,0,32.08A29.29,29.29,0,0,1,223,324.81a27.35,27.35,0,0,1-14.86,4.12,26.51,26.51,0,0,1-11.43-2.5,27.75,27.75,0,0,1-9.3-7.11V357Z" fill="#170f7b" fill-rule="evenodd"/></g><path d="M302.44,325.28q-9.84,0-14.87-4.77t-5-14.14V273.63h11.8V302.9q0,5.89,1.82,8.32c1.22,1.62,3.32,2.42,6.29,2.42s5-.8,6.22-2.42,1.82-4.39,1.82-8.32V273.63h11.86v32.74q0,9.36-5,14.14T302.44,325.28Z" fill="#170f7b" fill-rule="evenodd"/><g mask="url(#b)"><path d="M329.35,302.9h19.78v-9.68H329.35Z" fill="#170f7b" fill-rule="evenodd"/><path d="M353.18,324.3v-6.14q5.6-4.21,9.86-7.77t7.34-6.5a53,53,0,0,0,5-5.37,21.33,21.33,0,0,0,2.84-4.48,9.65,9.65,0,0,0,.91-3.86,7.12,7.12,0,0,0-.89-3.5,7,7,0,0,0-2.46-2.56,6.66,6.66,0,0,0-3.59-1,6.58,6.58,0,0,0-3.48,1,9.72,9.72,0,0,0-2.94,3,25.06,25.06,0,0,0-2.52,5.11l-9.83-4.79a24.55,24.55,0,0,1,3-6.28,19.45,19.45,0,0,1,4.33-4.61,18.5,18.5,0,0,1,5.54-2.88,22.82,22.82,0,0,1,16.5,1.22,17,17,0,0,1,6.71,6.1,16.28,16.28,0,0,1,2.43,8.84,18.34,18.34,0,0,1-.65,4.81,19.66,19.66,0,0,1-2,4.73,29.91,29.91,0,0,1-3.44,4.71,47.27,47.27,0,0,1-4.93,4.81c-1.9,1.63-4.08,3.29-6.51,5h18.46V324.3Z" fill="#170f7b" fill-rule="evenodd"/><path d="M398.92,324.3v-6.14q5.59-4.21,9.86-7.77t7.34-6.5a53,53,0,0,0,5-5.37A21.33,21.33,0,0,0,424,294a9.65,9.65,0,0,0,.91-3.86,7.12,7.12,0,0,0-.89-3.5,7,7,0,0,0-2.46-2.56,6.67,6.67,0,0,0-3.6-1,6.54,6.54,0,0,0-3.47,1,9.74,9.74,0,0,0-2.95,3,25.06,25.06,0,0,0-2.52,5.11l-9.82-4.79a24.55,24.55,0,0,1,3-6.28,19.25,19.25,0,0,1,4.33-4.61,18.5,18.5,0,0,1,5.54-2.88,22.82,22.82,0,0,1,16.5,1.22,17.08,17.08,0,0,1,6.71,6.1,16.28,16.28,0,0,1,2.43,8.84,18.34,18.34,0,0,1-.65,4.81,19.66,19.66,0,0,1-2,4.73,29.91,29.91,0,0,1-3.44,4.71,48.27,48.27,0,0,1-4.93,4.81q-2.87,2.44-6.51,5h18.46V324.3Z" fill="#170f7b" fill-rule="evenodd"/><path d="M249.88,328.72h20.89v-9H261v-42h9.73v-9H249.88Z" fill="#170f7b" fill-rule="evenodd"/><path d="M451.15,268.84v9h9.74v42h-9.74v9H472V268.84Z" fill="#170f7b" fill-rule="evenodd"/></g><path d="M544.17,283.8a2.73,2.73,0,0,0-1.23-.93,3.92,3.92,0,0,0-1.47-.29,4.13,4.13,0,0,0-1.68.33,4.08,4.08,0,0,0-1.31.92,4.41,4.41,0,0,0-.84,1.38,5.42,5.42,0,0,0,0,3.5,4,4,0,0,0,.81,1.38,3.5,3.5,0,0,0,1.27.9,4.16,4.16,0,0,0,1.66.32,3.73,3.73,0,0,0,1.7-.38,3.24,3.24,0,0,0,1.19-1l1.7,1.2a5.42,5.42,0,0,1-1.93,1.53,6.11,6.11,0,0,1-2.68.55,7.06,7.06,0,0,1-2.56-.46,5.86,5.86,0,0,1-2-1.3,6.06,6.06,0,0,1-1.31-2,6.72,6.72,0,0,1-.47-2.54,6.42,6.42,0,0,1,.5-2.58,5.7,5.7,0,0,1,1.36-2,6,6,0,0,1,2-1.24,7.36,7.36,0,0,1,2.56-.44,7.22,7.22,0,0,1,1.19.11,5.4,5.4,0,0,1,1.19.34,5.53,5.53,0,0,1,1.08.56,3.41,3.41,0,0,1,.85.8Z"/><path d="M546.37,288.84a4.43,4.43,0,0,1,.34-1.74,4,4,0,0,1,.94-1.33,4,4,0,0,1,1.39-.86,5.05,5.05,0,0,1,3.43,0,4,4,0,0,1,1.39.86,4.11,4.11,0,0,1,.94,1.33,4.43,4.43,0,0,1,.34,1.74,4.51,4.51,0,0,1-.34,1.75,4.2,4.2,0,0,1-.94,1.35,4.07,4.07,0,0,1-1.39.88,4.76,4.76,0,0,1-3.43,0,4.16,4.16,0,0,1-2.33-2.23A4.51,4.51,0,0,1,546.37,288.84Zm2,0a3.4,3.4,0,0,0,.14.94,2.57,2.57,0,0,0,.43.84,2.22,2.22,0,0,0,3.53,0,2.57,2.57,0,0,0,.43-.84,3.4,3.4,0,0,0,.14-.94,3.33,3.33,0,0,0-.14-.93,2.62,2.62,0,0,0-.43-.83,2.11,2.11,0,0,0-.72-.6,2.49,2.49,0,0,0-2.09,0,2.11,2.11,0,0,0-.72.6,2.62,2.62,0,0,0-.43.83A3.33,3.33,0,0,0,548.42,288.84Z"/><path d="M565,292.91H563V291.7h0a2.69,2.69,0,0,1-1.17,1.07,3.51,3.51,0,0,1-1.6.37,3.7,3.7,0,0,1-2.9-1.27,4.16,4.16,0,0,1-.79-1.36,5.09,5.09,0,0,1-.28-1.67,4.75,4.75,0,0,1,.29-1.66,4.09,4.09,0,0,1,.81-1.35,3.58,3.58,0,0,1,1.24-.89,4,4,0,0,1,2.57-.21,3.87,3.87,0,0,1,.76.31,3.21,3.21,0,0,1,.57.41,2.89,2.89,0,0,1,.38.42h0v-5.66h2Zm-6.64-4.07a3.08,3.08,0,0,0,.15.94,2.41,2.41,0,0,0,1.15,1.45,2.19,2.19,0,0,0,1,.23,2.12,2.12,0,0,0,1-.22,2.58,2.58,0,0,0,.75-.6,2.62,2.62,0,0,0,.47-.83,2.77,2.77,0,0,0,.16-.94,2.86,2.86,0,0,0-.16-.94,2.67,2.67,0,0,0-.47-.84,2.76,2.76,0,0,0-.75-.6,2,2,0,0,0-1-.24,2.19,2.19,0,0,0-1,.23,2.11,2.11,0,0,0-.72.6,2.27,2.27,0,0,0-.43.83A3,3,0,0,0,558.31,288.84Z"/><path d="M574.76,289v.26a2.45,2.45,0,0,1,0,.27h-6.13a2,2,0,0,0,.23.8,2,2,0,0,0,.51.62,2.32,2.32,0,0,0,.72.41,2.41,2.41,0,0,0,.84.16,2.75,2.75,0,0,0,1.28-.28,2.44,2.44,0,0,0,.86-.77l1.34,1.08a4,4,0,0,1-3.46,1.61,5.06,5.06,0,0,1-1.73-.29,4.29,4.29,0,0,1-1.37-.83,3.76,3.76,0,0,1-.91-1.32,4.69,4.69,0,0,1-.32-1.77,4.86,4.86,0,0,1,.32-1.78,3.94,3.94,0,0,1,2.25-2.23,4.49,4.49,0,0,1,1.69-.31,4.41,4.41,0,0,1,1.56.27,3.43,3.43,0,0,1,1.23.83,3.83,3.83,0,0,1,.82,1.36A5.77,5.77,0,0,1,574.76,289Zm-2-.91a2.55,2.55,0,0,0-.1-.74,1.72,1.72,0,0,0-.35-.62,1.77,1.77,0,0,0-.6-.43,2,2,0,0,0-.84-.16,2.24,2.24,0,0,0-1.54.55,2,2,0,0,0-.7,1.4Z"/><path d="M580.56,286.46H579v-1.62h1.53v-1.19a6.37,6.37,0,0,1,.15-1.39,3.18,3.18,0,0,1,.54-1.16,2.56,2.56,0,0,1,1-.8,3.62,3.62,0,0,1,1.56-.3,4.45,4.45,0,0,1,.57,0l.46.09-.14,1.72a1.9,1.9,0,0,0-.36-.09,2.63,2.63,0,0,0-.41,0,1.23,1.23,0,0,0-.7.17,1.15,1.15,0,0,0-.42.43,2.27,2.27,0,0,0-.19.59,4.44,4.44,0,0,0,0,.62v1.31h1.87v1.62h-1.87v6.45h-2Z"/><path d="M584.87,288.84a4.26,4.26,0,0,1,.35-1.74,4,4,0,0,1,2.32-2.19,5.05,5.05,0,0,1,3.43,0,4,4,0,0,1,1.39.86,4,4,0,0,1,.94,1.33,4.25,4.25,0,0,1,.34,1.74,4.34,4.34,0,0,1-.34,1.75,4.16,4.16,0,0,1-2.33,2.23,4.76,4.76,0,0,1-3.43,0,4.1,4.1,0,0,1-2.32-2.23A4.34,4.34,0,0,1,584.87,288.84Zm2,0a3.4,3.4,0,0,0,.14.94,2.57,2.57,0,0,0,.43.84,2.19,2.19,0,0,0,.73.61,2.22,2.22,0,0,0,1,.23,2.09,2.09,0,0,0,1.76-.84,2.57,2.57,0,0,0,.43-.84,3.4,3.4,0,0,0,.14-.94,3.33,3.33,0,0,0-.14-.93,2.62,2.62,0,0,0-.43-.83,2.11,2.11,0,0,0-.72-.6,2.25,2.25,0,0,0-1-.23,2.22,2.22,0,0,0-1,.23,2.05,2.05,0,0,0-.73.6,2.62,2.62,0,0,0-.43.83A3.33,3.33,0,0,0,586.92,288.84Z"/><path d="M595.25,284.84h1.94v1.35h0a3,3,0,0,1,.94-1.15,2.33,2.33,0,0,1,1.41-.43h.25a.86.86,0,0,1,.24,0v1.85a2,2,0,0,0-.35-.07l-.27,0a2.22,2.22,0,0,0-1.11.25,2,2,0,0,0-.66.61,2.31,2.31,0,0,0-.32.72,3.22,3.22,0,0,0-.08.59v4.32h-2Z"/><path d="M536.67,310.12a2.93,2.93,0,0,0,.89,1.59,2.37,2.37,0,0,0,1.68.63,2.64,2.64,0,0,0,1.33-.3,2.3,2.3,0,0,0,.82-.82,3.6,3.6,0,0,0,.42-1.21,7.66,7.66,0,0,0,.13-1.47V296.27h2.49v12.37a9.8,9.8,0,0,1-.2,2,5.5,5.5,0,0,1-.75,1.92,4.45,4.45,0,0,1-1.55,1.46,5.84,5.84,0,0,1-5.89-.48,4.88,4.88,0,0,1-1.68-2.72Z"/><path d="M555.3,306.37a2.38,2.38,0,0,0-.81-2,3.33,3.33,0,0,0-2.14-.64,4.83,4.83,0,0,0-3.4,1.39l-1.26-1.52a6.33,6.33,0,0,1,2.15-1.31,7.68,7.68,0,0,1,2.73-.48,6.23,6.23,0,0,1,2.23.37,4.26,4.26,0,0,1,1.55,1,4.08,4.08,0,0,1,.91,1.49,5.55,5.55,0,0,1,.3,1.84v5.22c0,.4,0,.82,0,1.27a6.94,6.94,0,0,0,.14,1.1H555.6a7.27,7.27,0,0,1-.2-1.72h-.08a4.61,4.61,0,0,1-1.65,1.49,5,5,0,0,1-2.36.53,5.93,5.93,0,0,1-1.47-.19,4.31,4.31,0,0,1-1.4-.62,3.32,3.32,0,0,1-1.46-2.87,3.06,3.06,0,0,1,.73-2.16,4.67,4.67,0,0,1,1.92-1.2,10.86,10.86,0,0,1,2.67-.55q1.49-.12,3-.12Zm-.58,2c-.59,0-1.2,0-1.83.08a8.43,8.43,0,0,0-1.71.3,3.26,3.26,0,0,0-1.28.68,1.55,1.55,0,0,0-.5,1.21,1.69,1.69,0,0,0,.21.88,1.76,1.76,0,0,0,.57.58,2.34,2.34,0,0,0,.78.32,5.14,5.14,0,0,0,.88.08,3.28,3.28,0,0,0,2.56-1,3.61,3.61,0,0,0,.9-2.51v-.63Z"/><path d="M563.26,320.15h-2.37v-18h2.32V304h.07a4.41,4.41,0,0,1,1.7-1.58,5.32,5.32,0,0,1,2.6-.62,6,6,0,0,1,2.43.48,5.62,5.62,0,0,1,1.88,1.34,5.91,5.91,0,0,1,1.22,2,7.28,7.28,0,0,1,0,4.93,6,6,0,0,1-1.21,2,5.36,5.36,0,0,1-1.88,1.35,6,6,0,0,1-2.49.49,5.39,5.39,0,0,1-2.41-.55,4.39,4.39,0,0,1-1.79-1.56h-.07Zm7.86-12a5.11,5.11,0,0,0-.25-1.61,4.08,4.08,0,0,0-.76-1.39,3.64,3.64,0,0,0-1.25-1,4,4,0,0,0-1.72-.35,3.84,3.84,0,0,0-1.65.35,3.91,3.91,0,0,0-1.27,1,4.22,4.22,0,0,0-.82,1.39,4.75,4.75,0,0,0,0,3.27,4.18,4.18,0,0,0,.82,1.38,4,4,0,0,0,1.27.94,3.7,3.7,0,0,0,1.65.35,3.89,3.89,0,0,0,1.72-.36,3.79,3.79,0,0,0,1.25-1,4.18,4.18,0,0,0,.76-1.39A5.16,5.16,0,0,0,571.12,308.11Z"/><path d="M583.67,306.37a2.38,2.38,0,0,0-.81-2,3.33,3.33,0,0,0-2.14-.64,4.68,4.68,0,0,0-1.9.39,4.63,4.63,0,0,0-1.5,1l-1.26-1.52a6.53,6.53,0,0,1,2.15-1.31,7.7,7.7,0,0,1,2.74-.48,6.27,6.27,0,0,1,2.23.37,4.35,4.35,0,0,1,1.55,1,4.19,4.19,0,0,1,.9,1.49,5.31,5.31,0,0,1,.31,1.84v5.22c0,.4,0,.82,0,1.27a8.34,8.34,0,0,0,.14,1.1H584a7.83,7.83,0,0,1-.2-1.72h-.08a4.45,4.45,0,0,1-1.65,1.49,5,5,0,0,1-2.35.53,6.07,6.07,0,0,1-1.48-.19,4.31,4.31,0,0,1-1.4-.62,3.44,3.44,0,0,1-1-1.13,3.35,3.35,0,0,1-.42-1.74,3.1,3.1,0,0,1,.73-2.16,4.67,4.67,0,0,1,1.92-1.2,11,11,0,0,1,2.67-.55q1.49-.12,3-.12Zm-.58,2c-.59,0-1.2,0-1.83.08a8.43,8.43,0,0,0-1.71.3,3.22,3.22,0,0,0-1.27.68,1.53,1.53,0,0,0-.51,1.21,1.6,1.6,0,0,0,.22.88,1.73,1.73,0,0,0,.56.58,2.43,2.43,0,0,0,.78.32,5.17,5.17,0,0,0,.89.08,3.24,3.24,0,0,0,2.55-1,3.61,3.61,0,0,0,.9-2.51v-.63Z"/><path d="M591.4,302.16c0,.3.06.64.08,1s0,.7,0,.95h.07a3.53,3.53,0,0,1,.62-.9,4.88,4.88,0,0,1,.89-.73,4.62,4.62,0,0,1,1.11-.49,4.41,4.41,0,0,1,1.26-.18,4.65,4.65,0,0,1,2,.39,4.09,4.09,0,0,1,1.39,1,4.3,4.3,0,0,1,.82,1.54,6.8,6.8,0,0,1,.26,1.89v7.41h-2.37v-6.63a7.75,7.75,0,0,0-.11-1.39,3.35,3.35,0,0,0-.42-1.16,2.2,2.2,0,0,0-.83-.8,2.71,2.71,0,0,0-1.36-.31,2.84,2.84,0,0,0-2.3,1.08,4.28,4.28,0,0,0-.9,2.86v6.35h-2.37v-9.38c0-.32,0-.73,0-1.23s0-.95-.08-1.34Z"/><path d="M524,290.41A18.76,18.76,0,1,0,493.48,311,18.74,18.74,0,0,0,520,311a18.81,18.81,0,0,0,4-20.57Z" fill="#fff"/><path d="M524,290.41A18.76,18.76,0,1,0,493.48,311,18.74,18.74,0,0,0,520,311a18.81,18.81,0,0,0,4-20.57Zm-21.36-2.22h-1.31a2,2,0,0,0-1.6.61,4.42,4.42,0,0,0-.53,2.67v12.69a4.42,4.42,0,0,0,.53,2.67,2,2,0,0,0,1.6.61h1.31V309h-2.38a3.47,3.47,0,0,1-2.66-1c-.63-.67-.95-1.93-.95-3.79v-1.57a4.75,4.75,0,0,0-.75-2.79,2.58,2.58,0,0,0-2.24-1.06V297a2.59,2.59,0,0,0,2.24-1.07,4.75,4.75,0,0,0,.75-2.79v-1.69c0-1.83.32-3.09.95-3.77a3.41,3.41,0,0,1,2.66-1h2.38Zm14.6,16c0,1.86-.32,3.12-.95,3.79a3.47,3.47,0,0,1-2.66,1h-2.38v-1.52h1.31a2,2,0,0,0,1.6-.61,4.42,4.42,0,0,0,.53-2.67V286.73h2.55Z" fill="#be003f"/></svg>