<svg width="172" height="82" viewBox="0 0 172 82" fill="none" xmlns="http://www.w3.org/2000/svg">
<path fill-rule="evenodd" clip-rule="evenodd" d="M79 50C92.8071 50 104 38.8071 104 25C104 11.1929 92.8071 0 79 0C65.1929 0 54 11.1929 54 25C54 38.8071 65.1929 50 79 50Z" fill="#170F7B"/>
<path fill-rule="evenodd" clip-rule="evenodd" d="M140 81C157.673 81 172 66.6731 172 49C172 31.3269 157.673 17 140 17C122.327 17 108 31.3269 108 49C108 66.6731 122.327 81 140 81Z" fill="#170F7B"/>
<path fill-rule="evenodd" clip-rule="evenodd" d="M79 40C87.2843 40 94 33.2843 94 25C94 16.7157 87.2843 10 79 10C70.7157 10 64 16.7157 64 25C64 33.2843 70.7157 40 79 40Z" fill="#F5F5F2"/>
<path fill-rule="evenodd" clip-rule="evenodd" d="M140 69C151.046 69 160 60.0457 160 49C160 37.9543 151.046 29 140 29C128.954 29 120 37.9543 120 49C120 60.0457 128.954 69 140 69Z" fill="#F5F5F2"/>
<rect x="10.6182" y="5.37549" width="15" height="82" transform="rotate(-21 10.6182 5.37549)" fill="#170F7B"/>
<rect x="19.0854" y="5.16626" width="8" height="31" transform="rotate(38 19.0854 5.16626)" fill="#170F7B"/>
</svg>
