<svg width="150" height="85" viewBox="0 0 150 85" fill="none" xmlns="http://www.w3.org/2000/svg">
<path fill-rule="evenodd" clip-rule="evenodd" d="M56 45C66.4934 45 75 36.4934 75 26C75 15.5066 66.4934 7 56 7C45.5066 7 37 15.5066 37 26C37 36.4934 45.5066 45 56 45Z" fill="#170F7B"/>
<path fill-rule="evenodd" clip-rule="evenodd" d="M18.5 70C23.1944 70 27 66.1944 27 61.5C27 56.8056 23.1944 53 18.5 53C13.8056 53 10 56.8056 10 61.5C10 66.1944 13.8056 70 18.5 70Z" fill="#170F7B"/>
<path fill-rule="evenodd" clip-rule="evenodd" d="M5 83C7.76142 83 10 80.7614 10 78C10 75.2386 7.76142 73 5 73C2.23858 73 0 75.2386 0 78C0 80.7614 2.23858 83 5 83Z" fill="#170F7B"/>
<path fill-rule="evenodd" clip-rule="evenodd" d="M89 43C100.598 43 110 33.3741 110 21.5C110 9.62588 100.598 0 89 0C77.402 0 68 9.62588 68 21.5C68 33.3741 77.402 43 89 43Z" fill="#170F7B"/>
<path fill-rule="evenodd" clip-rule="evenodd" d="M122 51C133.598 51 143 41.3741 143 29.5C143 17.6259 133.598 8 122 8C110.402 8 101 17.6259 101 29.5C101 41.3741 110.402 51 122 51Z" fill="#170F7B"/>
<path fill-rule="evenodd" clip-rule="evenodd" d="M53 74C64.598 74 74 64.3741 74 52.5C74 40.6259 64.598 31 53 31C41.402 31 32 40.6259 32 52.5C32 64.3741 41.402 74 53 74Z" fill="#170F7B"/>
<path fill-rule="evenodd" clip-rule="evenodd" d="M70 68C81.598 68 91 58.3741 91 46.5C91 34.6259 81.598 25 70 25C58.402 25 49 34.6259 49 46.5C49 58.3741 58.402 68 70 68Z" fill="#170F7B"/>
<path fill-rule="evenodd" clip-rule="evenodd" d="M82 85C93.598 85 103 75.3741 103 63.5C103 51.6259 93.598 42 82 42C70.402 42 61 51.6259 61 63.5C61 75.3741 70.402 85 82 85Z" fill="#170F7B"/>
<path fill-rule="evenodd" clip-rule="evenodd" d="M117 78C128.598 78 138 68.598 138 57C138 45.402 128.598 36 117 36C105.402 36 96 45.402 96 57C96 68.598 105.402 78 117 78Z" fill="#170F7B"/>
<path fill-rule="evenodd" clip-rule="evenodd" d="M136.5 64C143.956 64 150 57.9558 150 50.5C150 43.0442 143.956 37 136.5 37C129.044 37 123 43.0442 123 50.5C123 57.9558 129.044 64 136.5 64Z" fill="#170F7B"/>
<path fill-rule="evenodd" clip-rule="evenodd" d="M98.5 60C110.926 60 121 49.9264 121 37.5C121 25.0736 110.926 15 98.5 15C86.0736 15 76 25.0736 76 37.5C76 49.9264 86.0736 60 98.5 60Z" fill="#170F7B"/>
</svg>
