<svg width="185" height="89" viewBox="0 0 185 89" fill="none" xmlns="http://www.w3.org/2000/svg">
<path fill-rule="evenodd" clip-rule="evenodd" d="M65.0373 37.2103C70.5236 37.599 75.28 33.4374 75.6611 27.9151C76.0422 22.3928 71.9036 17.601 66.4173 17.2122C60.931 16.8235 56.1745 20.9851 55.7934 26.5074C55.4124 32.0297 59.551 36.8216 65.0373 37.2103Z" fill="#170F7B"/>
<path fill-rule="evenodd" clip-rule="evenodd" d="M63.2432 68.7728C71.4726 69.3559 78.6073 63.1135 79.1789 54.83C79.7505 46.5465 73.5426 39.3588 65.3132 38.7757C57.0837 38.1926 49.949 44.435 49.3774 52.7185C48.8058 61.0019 55.0137 68.1897 63.2432 68.7728Z" fill="#170F7B"/>
<path fill-rule="evenodd" clip-rule="evenodd" d="M49.4039 52.3339L79.2054 54.4454L77.5601 78.2893L47.7586 76.1777L49.4039 52.3339Z" fill="#170F7B"/>
<path fill-rule="evenodd" clip-rule="evenodd" d="M26.2642 42.3705C31.6244 41.1382 34.9563 35.7678 33.7062 30.3754C32.456 24.9829 27.0973 21.6105 21.737 22.8428C16.3768 24.0751 13.0449 29.4455 14.2951 34.8379C15.5452 40.2303 20.904 43.6028 26.2642 42.3705Z" fill="#170F7B"/>
<path fill-rule="evenodd" clip-rule="evenodd" d="M33.7764 73.0784C41.8168 71.2299 46.8146 63.1743 44.9394 55.0857C43.0642 46.997 35.026 41.9384 26.9857 43.7868C18.9453 45.6353 13.9475 53.6909 15.8227 61.7795C17.6979 69.8681 25.7361 74.9268 33.7764 73.0784Z" fill="#170F7B"/>
<path fill-rule="evenodd" clip-rule="evenodd" d="M15.7357 61.4039L44.8524 54.7101L50.2502 77.9931L21.1335 84.687L15.7357 61.4039Z" fill="#170F7B"/>
<path fill-rule="evenodd" clip-rule="evenodd" d="M98.4258 34.4399C104.003 33.7652 107.969 28.7638 107.284 23.2689C106.599 17.774 101.523 13.8665 95.9461 14.5412C90.3691 15.2159 86.4031 20.2173 87.0879 25.7122C87.7726 31.2071 92.8488 35.1146 98.4258 34.4399Z" fill="#170F7B"/>
<path fill-rule="evenodd" clip-rule="evenodd" d="M102.725 65.7717C111.09 64.7597 117.039 57.2575 116.012 49.0152C114.985 40.7729 107.371 34.9115 99.005 35.9236C90.6395 36.9356 84.6906 44.4377 85.7178 52.6801C86.7449 60.9224 94.3592 66.7837 102.725 65.7717Z" fill="#170F7B"/>
<path fill-rule="evenodd" clip-rule="evenodd" d="M85.67 52.2975L115.964 48.6326L118.921 72.358L88.6267 76.0229L85.67 52.2975Z" fill="#170F7B"/>
<path fill-rule="evenodd" clip-rule="evenodd" d="M136.767 25.3621C142.212 26.1326 147.248 22.3129 148.013 16.8306C148.778 11.3483 144.984 6.27947 139.538 5.50898C134.092 4.7385 129.057 8.55816 128.292 14.0404C127.526 19.5227 131.321 24.5916 136.767 25.3621Z" fill="#170F7B"/>
<path fill-rule="evenodd" clip-rule="evenodd" d="M132.775 56.7225C140.944 57.8783 148.497 52.1488 149.645 43.9254C150.793 35.7019 145.101 28.0986 136.933 26.9429C128.764 25.7872 121.211 31.5167 120.063 39.7401C118.915 47.9635 124.606 55.5668 132.775 56.7225Z" fill="#170F7B"/>
<path fill-rule="evenodd" clip-rule="evenodd" d="M120.116 39.3583L149.698 43.5435L146.393 67.2145L116.812 63.0293L120.116 39.3583Z" fill="#170F7B"/>
<path fill-rule="evenodd" clip-rule="evenodd" d="M162.072 21.5375C167.67 20.5761 171.407 15.377 170.42 9.92498C169.433 4.47293 164.095 0.832494 158.498 1.79384C152.9 2.75518 149.163 7.95426 150.15 13.4063C151.137 18.8584 156.474 22.4988 162.072 21.5375Z" fill="#170F7B"/>
<path fill-rule="evenodd" clip-rule="evenodd" d="M168.098 52.6046C176.494 51.1626 182.101 43.364 180.62 35.1859C179.14 27.0079 171.133 21.5472 162.737 22.9892C154.34 24.4312 148.734 32.2299 150.214 40.4079C151.695 48.586 159.702 54.0467 168.098 52.6046Z" fill="#170F7B"/>
<path fill-rule="evenodd" clip-rule="evenodd" d="M150.146 40.0282L180.552 34.8062L184.813 58.3467L154.407 63.5687L150.146 40.0282Z" fill="#170F7B"/>
</svg>
