<svg id="_" data-name="ｸﾘｰﾁｬｰｽﾞﾛｺﾞ" xmlns="http://www.w3.org/2000/svg" viewBox="0 0 250.48 52.13"><defs><style>.cls-1{fill:#0b318f;}</style></defs><path class="cls-1" d="M28.1,22.76c-.62-2.26-1.83-6.51-8.31-6.51-3.76,0-9.31,2.52-9.31,13.18,0,6.77,2.67,12.87,9.31,12.87,4.34,0,7.37-2.47,8.31-7.09H36c-1.57,8.19-6.9,13.91-16.32,13.91-10,0-17.15-6.77-17.15-19.8s7.59-19.9,17.26-19.9C31,9.42,35.53,17.19,36,22.76Z"/><path class="cls-1" d="M41.28,20.19h7V25h.1c1.52-2.84,3.19-5.57,7.63-5.57a11.17,11.17,0,0,1,1.42.11V27a14.42,14.42,0,0,0-2.1-.1c-5.69,0-6.74,3.57-6.74,6.67V48.12H41.28Z"/><path class="cls-1" d="M67,31.37c.42-3.67,2.25-5.88,5.7-5.88,2.36,0,5.23,1.37,5.65,5.88Zm11,8.56a4.71,4.71,0,0,1-4.71,3c-5.91,0-6.33-4.73-6.54-6.83H85.88V34.84c0-12.76-7.58-15.39-13.07-15.39-12.19,0-13.34,10.77-13.34,14.13,0,11.5,6,15.28,13.86,15.28,4.76,0,10.3-2.21,12.23-8.93Z"/><path class="cls-1" d="M106.11,38.09c0,3.42-3.29,5.52-6.53,5.52a3.2,3.2,0,0,1-3.4-3.36c0-3,2.25-3.73,5-4.2,3-.48,4.23-.95,5-1.53Zm7.16-10.55c0-6.88-7.16-8.09-11.08-8.09-5.7,0-11.61,1.21-12.44,9.77h7.06c.21-1.63.83-3.89,4.49-3.89,1.88,0,4.81.16,4.81,3.26,0,1.57-1.41,2.05-2.56,2.2l-6.59,1c-4.65.68-8.1,3.47-8.1,8.93,0,5.78,4.29,8.14,8.47,8.14a11.26,11.26,0,0,0,9-4,12.35,12.35,0,0,0,.68,3.31h7.9V47c-.89-.31-1.63-1.05-1.63-4.36Z"/><path class="cls-1" d="M128,20.19h4.55v5.25H128V40.61c0,1.63,0,2.26,3,2.26.47,0,1,0,1.52-.1v5.56c-1.15.06-2.3.11-3.45.11h-.94c-6.33,0-7.48-2.42-7.48-6v-17h-3.76V20.19h3.76V12.63H128Z"/><path class="cls-1" d="M162.32,48.12h-7V44.19h-.1a9.15,9.15,0,0,1-8.47,4.67c-5.49,0-9.47-3.15-9.47-10.29V20.19h7.32V37.52c0,4.3,2.51,5.14,4.76,5.14,2.41,0,5.65-1.36,5.65-6.35V20.19h7.32Z"/><path class="cls-1" d="M169.12,20.19h7V25h.11c1.51-2.84,3.19-5.57,7.63-5.57a11.16,11.16,0,0,1,1.41.11V27a14.22,14.22,0,0,0-2.09-.1c-5.7,0-6.74,3.57-6.74,6.67V48.12h-7.32Z"/><path class="cls-1" d="M194.84,31.37c.42-3.67,2.25-5.88,5.7-5.88,2.35,0,5.23,1.37,5.64,5.88Zm11,8.56a4.7,4.7,0,0,1-4.7,3c-5.91,0-6.33-4.73-6.54-6.83h19.08V34.84c0-12.76-7.58-15.39-13.06-15.39-12.19,0-13.34,10.77-13.34,14.13,0,11.5,6,15.28,13.86,15.28,4.75,0,10.3-2.21,12.23-8.93Z"/><path class="cls-1" d="M234.31,28.69C234,26.91,233.37,25,229.4,25s-4.5,1.52-4.5,2.73c0,4.41,17.41,1.21,17.41,11.5,0,8.14-7.84,9.61-12.18,9.61-6.33,0-13.17-2.21-13.38-9.66h7.53c0,2.36,1.46,4.09,6.06,4.09,3.76,0,4.66-1.84,4.66-2.89,0-4.67-17.26-1.15-17.26-11.6,0-4.1,2.56-9.35,11.24-9.35,5.44,0,11.92,1.37,12.5,9.24Z"/><path class="cls-1" d="M227.93,15.31h-2.09V7.89h-3V6.29H231v1.6h-3Z"/><path class="cls-1" d="M241.8,15.31h-2V7.77h0L238,15.31h-2.05l-1.83-7.54h0v7.54h-2v-9h3.05L237,13.4h0l1.79-7.11h3Z"/></svg>