<?xml version="1.0" encoding="utf-8"?>
<!-- Generator: Adobe Illustrator 19.0.0, SVG Export Plug-In . SVG Version: 6.00 Build 0)  -->
<svg version="1.1" id="GoogleLogo_x5F_FullColor_x5F_rgb_21_"
	 xmlns="http://www.w3.org/2000/svg" xmlns:xlink="http://www.w3.org/1999/xlink" x="0px" y="0px" width="463.23px"
	 height="152.21px" viewBox="0 0 463.23 152.21" enable-background="new 0 0 463.23 152.21" xml:space="preserve">
<g id="_x34_64x153px">
	<path fill="#4285F4" d="M59.9,118.08C27.36,118.08,0,91.58,0,59.04C0,26.5,27.36,0,59.9,0c18,0,30.82,7.06,40.46,16.27L88.99,27.65
		c-6.91-6.48-16.27-11.52-29.09-11.52c-23.76,0-42.33,19.15-42.33,42.91c0,23.76,18.58,42.91,42.33,42.91
		c15.41,0,24.19-6.19,29.81-11.81c4.61-4.61,7.63-11.3,8.78-20.37H60v-16h54.14c0.58,2.88,0.86,6.27,0.86,10.02
		c0,12.1-3.26,27.07-13.91,37.73C90.72,112.32,77.47,118.08,59.9,118.08z"/>
	<path fill="#E94235" d="M196.95,80.06c0,21.89-17.04,38.01-37.95,38.01s-37.95-16.13-37.95-38.01c0-22.03,17.04-38.02,37.95-38.02
		S196.95,58.03,196.95,80.06z M180.34,80.06c0-13.68-9.88-23.04-21.34-23.04s-21.34,9.36-21.34,23.04
		c0,13.54,9.88,23.04,21.34,23.04S180.34,93.6,180.34,80.06z"/>
	<path fill="#FABB05" d="M278.95,80.06c0,21.89-17.04,38.01-37.95,38.01s-37.95-16.13-37.95-38.01c0-22.03,17.04-38.02,37.95-38.02
		S278.95,58.03,278.95,80.06z M262.34,80.06c0-13.68-9.88-23.04-21.34-23.04s-21.34,9.36-21.34,23.04
		c0,13.54,9.88,23.04,21.34,23.04S262.34,93.6,262.34,80.06z"/>
	<path fill="#4285F4" d="M357.96,44.26v68.34c0,28.08-16.56,39.6-36.14,39.6c-18.43,0-29.52-12.38-33.7-22.46l14.54-6.05
		c2.59,6.19,8.93,13.54,19.15,13.54c12.53,0,20.3-7.78,20.3-22.32v-5.47h-0.58c-3.74,4.61-10.94,8.64-20.02,8.64
		c-19.01,0-36.43-16.56-36.43-37.87c0-21.46,17.42-38.16,36.43-38.16c9.07,0,16.27,4.03,20.02,8.5h0.58v-6.28H357.96z M343.27,80.21
		c0-13.39-8.93-23.18-20.3-23.18c-11.52,0-21.17,9.79-21.17,23.18c0,13.25,9.65,22.9,21.17,22.9
		C334.35,103.1,343.27,93.45,343.27,80.21z"/>
	<path fill="#34A853" d="M386,4.03v111.74h-16.7V4.03H386z"/>
	<path fill="#E94235" d="M449.55,92.59l12.96,8.64c-4.18,6.19-14.25,16.85-31.68,16.85c-21.6,0-37.73-16.7-37.73-38.01
		c0-22.61,16.27-38.02,35.86-38.02c19.73,0,29.38,15.7,32.54,24.19l1.73,4.32L412.4,91.58c3.89,7.63,9.94,11.52,18.43,11.52
		C439.32,103.1,445.23,98.93,449.55,92.59z M409.66,78.91l33.98-14.11c-1.87-4.75-7.49-8.06-14.11-8.06
		C421.04,56.73,409.23,64.22,409.66,78.91z"/>
</g>
</svg>
