<?xml version="1.0" encoding="UTF-8" standalone="no"?>
<svg
   xmlns:dc="http://purl.org/dc/elements/1.1/"
   xmlns:cc="http://creativecommons.org/ns#"
   xmlns:rdf="http://www.w3.org/1999/02/22-rdf-syntax-ns#"
   xmlns:svg="http://www.w3.org/2000/svg"
   xmlns="http://www.w3.org/2000/svg"
   xmlns:sodipodi="http://sodipodi.sourceforge.net/DTD/sodipodi-0.dtd"
   xmlns:inkscape="http://www.inkscape.org/namespaces/inkscape"
   inkscape:version="1.0 (4035a4fb49, 2020-05-01)"
   height="194.14375"
   width="1088.1027"
   sodipodi:docname="sakura-internet.svg"
   version="1.1"
   viewBox="0 0 1088.1027 194.14375"
   id="whiteback">
  <metadata
     id="metadata47">
    <rdf:RDF>
      <cc:Work
         rdf:about="">
        <dc:format>image/svg+xml</dc:format>
        <dc:type
           rdf:resource="http://purl.org/dc/dcmitype/StillImage" />
        <dc:title>アートボード 2</dc:title>
      </cc:Work>
    </rdf:RDF>
  </metadata>
  <sodipodi:namedview
     inkscape:current-layer="whiteback"
     inkscape:window-maximized="1"
     inkscape:window-y="-8"
     inkscape:window-x="-8"
     inkscape:cy="113.00879"
     inkscape:cx="397.06592"
     inkscape:zoom="0.55861244"
     fit-margin-bottom="0"
     fit-margin-right="0"
     fit-margin-left="0"
     fit-margin-top="0"
     showgrid="false"
     id="namedview45"
     inkscape:window-height="837"
     inkscape:window-width="1600"
     inkscape:pageshadow="2"
     inkscape:pageopacity="0"
     guidetolerance="10"
     gridtolerance="10"
     objecttolerance="10"
     borderopacity="1"
     bordercolor="#666666"
     pagecolor="#ffffff" />
  <defs
     id="defs4">
    <style
       id="style2">.cls-1{fill:#f57;}.cls-2{opacity:0.4;}.cls-3{fill:#808088;}</style>
  </defs>
  <title
     id="title6">アートボード 2</title>
  <g
     id="g925">
    <path
       class="cls-1"
       d="m 159.3827,11.263753 c -22.21,-17.86 -54.81,-14 -72.750004,8.17 l -24.3,30 a 12.28,12.28 0 0 0 9.54,20 H 142.9927 a 20.88,20.88 0 0 1 20.42,16.54 l 0.43,2 3.31,-4.09 a 51.57,51.57 0 0 0 -7.77,-72.62 z"
       id="path8" />
    <g
       class="cls-2"
       id="g12"
       transform="translate(-82.797304,-62.326247)">
      <path
         class="cls-3"
         d="m 97.6,135.33 -3.31,4.09 a 51.57,51.57 0 0 0 7.77,72.65 50.91,50.91 0 0 0 32,11.26 52.35,52.35 0 0 0 40.71,-19.43 l 24.3,-30 a 12.28,12.28 0 0 0 -9.54,-20 H 118.45 A 20.88,20.88 0 0 1 98,137.35 l -0.43,-2"
         id="path10" />
    </g>
    <path
       class="cls-3"
       d="m 376.7627,112.37375 v 52.92 c 0,16.6 12.26,28.85 33.93,28.85 20.41,0 33.72,-11.14 33.72,-29.31 v -52.46 h -11.84 v 49.08 c 0,17.23 -7.37,22.79 -20.75,22.79 -14,0 -19.54,-7.12 -19.54,-23.14 v -48.74 z"
       id="path14" />
    <rect
       class="cls-3"
       x="659.8327"
       y="133.07375"
       width="14.72"
       height="59.799999"
       id="rect16" />
    <circle
       class="cls-3"
       cx="667.19269"
       cy="117.43375"
       r="8.7399998"
       id="circle18" />
    <path
       class="cls-3"
       d="m 831.0427,131.80375 c -18,0 -28.58,12.76 -28.58,31 v 0.58 c 0,19 12,30.7 30.56,30.7 a 42,42 0 0 0 22,-5.88 v -10.18 c -6.89,5.11 -13.82,7.65 -21.82,7.65 -8.59,0 -14.9,-5.93 -14.9,-19.42 h 40.24 c 0.04,-21.45 -8.08,-34.45 -27.5,-34.45 z m -12.53,25.87 c 0.47,-10.48 3.75,-17.38 12.54,-17.38 8.36,0 11.41,7.63 11.67,17.38 z"
       id="path20" />
    <path
       class="cls-3"
       d="m 1012.0027,131.80375 c -18,0 -28.58,12.76 -28.58,31 v 0.58 c 0,19 12,30.7 30.56,30.7 a 42,42 0 0 0 22,-5.88 v -10.18 c -6.89,5.12 -13.81,7.6 -21.79,7.6 -8.59,0 -14.9,-5.93 -14.9,-19.42 h 40.24 c 0,-21.4 -8.12,-34.4 -27.53,-34.4 z m -12.54,25.87 c 0.47,-10.48 3.75,-17.38 12.54,-17.38 8.36,0 11.41,7.63 11.67,17.38 z"
       id="path22" />
    <path
       sodipodi:nodetypes="sccccccccccsscccs"
       class="cls-3"
       d="m 776.3627,176.67375 v -35.09 l 17.34,2.5e-4 v -8.51025 h -17.34 v -17.71 h -14.72 v 17.71 h -8 v 8.51 h 8 v 36 c 0,9.69 8,16.53 19.73,16.53 5.33,0 9.23,-1 12.47,-3.15 v -7.46 c -2.93147,1.11143 -6.04509,1.66428 -9.18,1.63 -4.96,0.03 -8.3,-3.3 -8.3,-8.46 z"
       id="path24" />
    <path
       class="cls-3"
       d="m 158.8427,131.54375 c 0,-6.58 4.52,-10.43 13.32,-10.43 9.59,0 15.9,2.67 23.75,7.8 v -13 a 61.63,61.63 0 0 0 -23.78,-4.72 c -17.52,0 -30,8.63 -30,21.62 0,26.61 40.85,22.31 40.85,40.19 0,7.1 -5.21,11.1 -12.71,11.1 -11.06,0 -20.93,-5.53 -28,-11.39 v 13.35 c 8,5.74 18.26,7.93 29,7.93 17.21,0 28.31,-9 28.31,-22.48 0.1,-28.41 -40.74,-22.84 -40.74,-39.97 z"
       id="path26" />
    <path
       class="cls-3"
       d="m 528.8927,136.05375 c 0,-17.53 -14.71,-23.68 -28.9,-23.68 h -35.86 v 80.5 h 15.52 v -32.09 h 14.81 l 18.32,32.08 h 17.88 l -19.36,-33.94 c 8.63,-2.33 17.59,-9.39 17.59,-22.87 z m -49.24,-13.73 h 15.21 c 10.39,0 17.36,4.71 17.36,14.46 0,10.4 -8.29,14 -17.36,14 h -15.21 z"
       id="path28" />
    <polygon
       class="cls-3"
       points="445.9,174.7 432.68,174.7 393.26,219.12 393.26,174.7 377.73,174.7 377.73,255.2 393.26,255.2 393.26,234.02 403.7,222.25 428.42,255.2 447.82,255.2 414.22,210.4 "
       id="polygon30"
       transform="translate(-82.797304,-62.326247)" />
    <path
       class="cls-3"
       d="m 267.2027,192.87375 h 16.7 l -31.45,-81.07 h -15.78 l -31.47,81.07 h 12.7 l 8.3,-21.32 h 32.78 z m -37.17,-31.2 12.56,-32.37 12.55,32.37 z"
       id="path32" />
    <path
       class="cls-3"
       d="m 725.1027,131.80375 c -7.93,0 -16,5.3 -19.55,10.12 v -8.85 h -14.72 v 59.79 h 14.72 v -41.88 c 3.3,-6.14 8.8,-9.14 13.43,-9.14 a 8.68,8.68 0 0 1 8.82,8.72 v 42.31 h 14.72 v -45.59 c 0,-7.3 -5.09,-15.48 -17.42,-15.48 z"
       id="path34" />
    <path
       class="cls-3"
       d="m 953.4427,131.80375 c -7.93,0 -16,5.3 -19.55,10.12 v -8.85 h -14.69 v 59.79 h 14.72 v -41.88 c 3.3,-6.14 8.8,-9.14 13.43,-9.14 a 8.68,8.68 0 0 1 8.82,8.72 v 42.31 h 14.72 v -45.59 c -0.03,-7.3 -5.12,-15.48 -17.45,-15.48 z"
       id="path36" />
    <path
       class="cls-3"
       d="m 886.5827,143.67375 v -10.6 h -14.72 v 59.8 h 14.72 v -40.13 c 6.08,-6.61 13.16,-9.09 22.22,-9.09 v -11.16 a 27.38,27.38 0 0 0 -22.22,11.18 z"
       id="path38" />
    <path
       class="cls-3"
       d="m 600.7327,192.87375 h 16.65 l -31.45,-81.07 h -15.73 l -31.49,81.07 h 12.7 l 8.27,-21.31 h 32.78 z m -37.22,-31.2 12.56,-32.37 12.56,32.37 z"
       id="path40" />
    <path
       class="cls-3"
       d="m 1070.6227,176.67375 v -35.09 h 17.34 v -8.51 h -17.34 v -17.71 h -14.72 v 17.71 h -8 v 8.51 h 8 v 36 c 0,9.69 8,16.53 19.73,16.53 5.33,0 9.23,-1 12.47,-3.15 v -7.46 a 25.12,25.12 0 0 1 -9.18,1.63 c -4.95,0.03 -8.3,-3.3 -8.3,-8.46 z"
       id="path42" />
  </g>
</svg>
