<svg xmlns="http://www.w3.org/2000/svg" viewBox="0 0 272.16 190.5"><defs><style>.cls-1{fill:#1797c0;}.cls-2,.cls-3{fill:#fff;}.cls-3{fill-rule:evenodd;}</style></defs><g id="レイヤー_2" data-name="レイヤー 2"><g id="Layer_1" data-name="Layer 1"><path class="cls-1" d="M113.26,20.78A47.68,47.68,0,0,1,147.77,6a48.19,48.19,0,0,1,42,24.89,58,58,0,0,1,23.73-5.05c32.4,0,58.67,26.5,58.67,59.19s-26.27,59.19-58.67,59.19A58,58,0,0,1,201.93,143a42.89,42.89,0,0,1-56.2,17.65,48.94,48.94,0,0,1-91-2.21,44.81,44.81,0,0,1-9.33,1C20.34,159.44,0,138.89,0,113.54A46,46,0,0,1,22.71,73.79a52.86,52.86,0,0,1,90.55-53Z"/><path class="cls-2" d="M39.42,98.79c-.17.45.06.54.12.62.51.37,1,.63,1.55.94a16.62,16.62,0,0,0,8.14,1.9c5.58,0,9.05-3,9.05-7.75v-.1c0-4.42-3.92-6-7.58-7.18l-.48-.16c-2.77-.89-5.16-1.67-5.16-3.49v-.1c0-1.56,1.4-2.71,3.56-2.71a16,16,0,0,1,7.09,1.82s.54.35.74-.17l1.14-3.06a.53.53,0,0,0-.27-.63,15.8,15.8,0,0,0-8-2.15h-.56c-5.11,0-8.68,3.09-8.68,7.51v.09c0,4.66,3.94,6.18,7.63,7.23l.59.18c2.68.83,5,1.54,5,3.43v.09c0,1.73-1.51,3-3.93,3a13.2,13.2,0,0,1-7.19-2.07c-.4-.23-.62-.39-.92-.58a.45.45,0,0,0-.74.25Z"/><path class="cls-2" d="M121.15,98.79c-.17.45.06.54.12.62.51.37,1,.63,1.55.94a16.62,16.62,0,0,0,8.14,1.9c5.58,0,9-3,9-7.75v-.1c0-4.42-3.91-6-7.58-7.18l-.48-.16c-2.77-.89-5.16-1.67-5.16-3.49v-.1c0-1.56,1.4-2.71,3.56-2.71a16,16,0,0,1,7.09,1.82s.55.35.74-.17l1.14-3.06a.53.53,0,0,0-.27-.63,15.8,15.8,0,0,0-8-2.15h-.56c-5.11,0-8.68,3.09-8.68,7.51v.09c0,4.66,3.94,6.18,7.63,7.23l.59.18c2.68.83,5,1.54,5,3.43v.09c0,1.73-1.51,3-3.93,3a13.2,13.2,0,0,1-7.19-2.07c-.4-.23-.63-.39-.92-.58a.48.48,0,0,0-.74.25Z"/><path class="cls-2" d="M181.61,84.42a11.27,11.27,0,0,0-2.12-4,10.32,10.32,0,0,0-3.58-2.72,13,13,0,0,0-10,0,10.2,10.2,0,0,0-3.57,2.72,11.29,11.29,0,0,0-2.13,4,18.76,18.76,0,0,0,0,10,11.13,11.13,0,0,0,2.13,4,10,10,0,0,0,3.58,2.7,13.19,13.19,0,0,0,10,0,10.1,10.1,0,0,0,3.59-2.7,11.27,11.27,0,0,0,2.12-4,18.76,18.76,0,0,0,0-10m-4.67,5a11.5,11.5,0,0,1-1.49,6.34A5,5,0,0,1,170.91,98a4.94,4.94,0,0,1-4.51-2.21,11.59,11.59,0,0,1-1.48-6.34,11.59,11.59,0,0,1,1.47-6.31,5.77,5.77,0,0,1,9.06,0,11.35,11.35,0,0,1,1.49,6.3"/><path class="cls-3" d="M219.87,97.25a.44.44,0,0,0-.59-.28,10.68,10.68,0,0,1-2.17.62,16.72,16.72,0,0,1-2.55.18,7.1,7.1,0,0,1-5.33-2c-1.29-1.33-2-3.48-2-6.38A9.78,9.78,0,0,1,209,83.27,6.06,6.06,0,0,1,214.19,81a15.3,15.3,0,0,1,4.92.71s.37.16.54-.32c.41-1.14.71-1.94,1.15-3.19a.43.43,0,0,0-.29-.55,18.64,18.64,0,0,0-3.11-.78,22.63,22.63,0,0,0-3.5-.24,12.78,12.78,0,0,0-5.19,1A10.83,10.83,0,0,0,205,80.34a11.25,11.25,0,0,0-2.27,4,16,16,0,0,0-.76,5c0,3.86,1,7,3.1,9.27s5.16,3.46,9.2,3.46a19.06,19.06,0,0,0,6.6-1.17.43.43,0,0,0,.19-.56Z"/><path class="cls-3" d="M243.72,83.54a9.84,9.84,0,0,0-2-3.69,9.26,9.26,0,0,0-3-2.29,11.51,11.51,0,0,0-4.51-.91,12.36,12.36,0,0,0-5.21,1,10.18,10.18,0,0,0-3.63,2.77,11.38,11.38,0,0,0-2.14,4.1,17.67,17.67,0,0,0-.69,5,17.15,17.15,0,0,0,.71,5,10.51,10.51,0,0,0,2.29,4,10.33,10.33,0,0,0,4,2.62,15.55,15.55,0,0,0,5.72.93c4.56,0,7-1,7.95-1.58.17-.09.34-.26.13-.75l-1-2.89a.46.46,0,0,0-.6-.27,15.17,15.17,0,0,1-6.47,1.16,7.46,7.46,0,0,1-5.4-1.85c-1.16-1.16-1.74-2.85-1.83-5.25h15.77a.46.46,0,0,0,.46-.41A17.05,17.05,0,0,0,243.72,83.54ZM228,86.84a9.22,9.22,0,0,1,1.27-3.73,5,5,0,0,1,4.51-2.28,4.88,4.88,0,0,1,4.42,2.29,7.76,7.76,0,0,1,1.05,3.72Z"/><path class="cls-3" d="M117.38,83.54a9.84,9.84,0,0,0-2-3.69,9.23,9.23,0,0,0-3-2.29,11.56,11.56,0,0,0-4.52-.91,12.36,12.36,0,0,0-5.21,1A10.27,10.27,0,0,0,99,80.43a11.38,11.38,0,0,0-2.14,4.1,17.67,17.67,0,0,0-.69,5,17.15,17.15,0,0,0,.71,5,10.51,10.51,0,0,0,2.29,4,10.4,10.4,0,0,0,4,2.62,15.55,15.55,0,0,0,5.72.93c4.56,0,7-1,7.95-1.58.17-.09.34-.26.13-.75l-1-2.89a.45.45,0,0,0-.59-.27,15.23,15.23,0,0,1-6.48,1.16,7.46,7.46,0,0,1-5.4-1.85c-1.16-1.16-1.74-2.85-1.83-5.25h15.77a.46.46,0,0,0,.46-.41A16.84,16.84,0,0,0,117.38,83.54Zm-15.69,3.3A9.22,9.22,0,0,1,103,83.11a5,5,0,0,1,4.51-2.28,4.9,4.9,0,0,1,4.43,2.29,7.87,7.87,0,0,1,1,3.72Z"/><path class="cls-2" d="M73.87,86.08c-.64,0-1.47-.07-2.46-.07a15,15,0,0,0-3.89.5A10,10,0,0,0,64.23,88a7.38,7.38,0,0,0-3.14,6.23,8.22,8.22,0,0,0,.73,3.6,6.49,6.49,0,0,0,2,2.47,8.77,8.77,0,0,0,3.22,1.4,19.08,19.08,0,0,0,4.18.42,28.15,28.15,0,0,0,4.79-.4c1.55-.26,3.44-.65,4-.77s1.11-.28,1.11-.28a.5.5,0,0,0,.36-.52V85.77c0-3.17-.85-5.51-2.51-7s-4.09-2.18-7.24-2.18a25.79,25.79,0,0,0-4.23.39s-3.45.67-4.86,1.78a.49.49,0,0,0-.15.63l1.12,3a.4.4,0,0,0,.52.25,1.29,1.29,0,0,0,.26-.13,16,16,0,0,1,6.87-1.6,6.41,6.41,0,0,1,3.9,1c.86.66,1.3,1.66,1.3,3.76v.67C75.12,86.19,73.87,86.08,73.87,86.08ZM67.59,97.17a3.21,3.21,0,0,1-.91-.94,3.79,3.79,0,0,1-.47-2,3.43,3.43,0,0,1,1.41-3.05S69,89.94,72.19,90a30.7,30.7,0,0,1,4.28.36v7.17h0a32.67,32.67,0,0,1-4.27.57C69,98.28,67.58,97.16,67.59,97.17Z"/><path class="cls-3" d="M201.1,78a.44.44,0,0,0-.23-.57,13.92,13.92,0,0,0-2.65-.44,7.75,7.75,0,0,0-4.06.65,7,7,0,0,0-2.67,2V77.63a.45.45,0,0,0-.46-.47h-4a.45.45,0,0,0-.45.47v23.54a.47.47,0,0,0,.48.47h4.14a.47.47,0,0,0,.48-.47V89.41a14.07,14.07,0,0,1,.52-4.14A5.94,5.94,0,0,1,193.54,83a4.87,4.87,0,0,1,2-1.17,7.5,7.5,0,0,1,2.12-.3,9,9,0,0,1,1.73.21.53.53,0,0,0,.58-.43C200.19,80.54,201,78.38,201.1,78Z"/><path class="cls-3" d="M162.2,67.05a11.94,11.94,0,0,0-1.56-.37,12.21,12.21,0,0,0-2.14-.17,9,9,0,0,0-6.68,2.4,13,13,0,0,0-3.17,7.15l-.2,1.07h-3.58a.55.55,0,0,0-.53.46l-.58,3.28c0,.32.09.51.51.51h3.49l-3.54,19.74a25.16,25.16,0,0,1-.95,3.89,7.64,7.64,0,0,1-1.1,2.24,2.87,2.87,0,0,1-1.44,1.12,5.92,5.92,0,0,1-1.86.27,7.59,7.59,0,0,1-1.26-.14,3.85,3.85,0,0,1-.85-.28.44.44,0,0,0-.57.26c-.13.33-1.06,2.89-1.17,3.2a.47.47,0,0,0,.24.63,11.17,11.17,0,0,0,1.44.42A9.39,9.39,0,0,0,139,113a11.4,11.4,0,0,0,3.87-.6,7.23,7.23,0,0,0,2.92-2,10.45,10.45,0,0,0,2-3.53,30.49,30.49,0,0,0,1.39-5.3l3.55-20.11H158a.53.53,0,0,0,.53-.46l.58-3.28c0-.31-.09-.51-.51-.51h-5.05a22.36,22.36,0,0,1,.84-3.55,4.55,4.55,0,0,1,1.1-1.69,3.36,3.36,0,0,1,1.32-.82,5.63,5.63,0,0,1,1.7-.24,6.11,6.11,0,0,1,1.29.13c.49.1.68.16.81.19.51.16.58,0,.68-.24l1.21-3.31A.42.42,0,0,0,162.2,67.05Z"/><path class="cls-3" d="M91.73,101.17a.45.45,0,0,1-.45.47H87.09a.45.45,0,0,1-.45-.47V67.5a.46.46,0,0,1,.45-.48h4.19a.46.46,0,0,1,.45.48Z"/></g></g></svg>
