<?xml version="1.0" encoding="UTF-8" standalone="no"?>
<svg
   xmlns:dc="http://purl.org/dc/elements/1.1/"
   xmlns:cc="http://creativecommons.org/ns#"
   xmlns:rdf="http://www.w3.org/1999/02/22-rdf-syntax-ns#"
   xmlns:svg="http://www.w3.org/2000/svg"
   xmlns="http://www.w3.org/2000/svg"
   xmlns:sodipodi="http://sodipodi.sourceforge.net/DTD/sodipodi-0.dtd"
   xmlns:inkscape="http://www.inkscape.org/namespaces/inkscape"
   inkscape:version="1.0 (4035a4fb49, 2020-05-01)"
   sodipodi:docname="yahoo-japan.svg"
   version="1.1"
   id="svg2"
   xml:space="preserve"
   width="380.0004"
   height="95.667725"
   viewBox="0 0 380.0004 95.667723"><sodipodi:namedview
     fit-margin-bottom="0"
     fit-margin-right="0"
     fit-margin-left="0"
     fit-margin-top="0"
     inkscape:current-layer="svg2"
     inkscape:window-maximized="1"
     inkscape:window-y="-8"
     inkscape:window-x="-8"
     inkscape:cy="79.049165"
     inkscape:cx="172.91988"
     inkscape:zoom="1.1937426"
     showgrid="false"
     id="namedview323"
     inkscape:window-height="837"
     inkscape:window-width="1600"
     inkscape:pageshadow="2"
     inkscape:pageopacity="0"
     guidetolerance="10"
     gridtolerance="10"
     objecttolerance="10"
     borderopacity="1"
     bordercolor="#666666"
     pagecolor="#ffffff" /><metadata
     id="metadata8"><rdf:RDF><cc:Work
         rdf:about=""><dc:format>image/svg+xml</dc:format><dc:type
           rdf:resource="http://purl.org/dc/dcmitype/StillImage" /><dc:title></dc:title></cc:Work></rdf:RDF></metadata><defs
     id="defs6"><clipPath
       clipPathUnits="userSpaceOnUse"
       id="clipPath26"><path
         d="M 0,841.89 H 595.275 V 0 H 0 Z"
         id="path24" /></clipPath></defs><g
     transform="translate(-196.98626,-460.33961)"
     id="g2106"><g
       id="g466"
       transform="matrix(1.3333333,0,0,-1.3333333,441.04426,522.91001)"><path
         d="m 0,0 c -0.705,-0.168 -3.299,-1.057 -4.059,-1.272 -0.076,-2.394 -0.462,-13.086 -0.462,-13.086 -0.211,-4.978 -2.374,-8.275 -8.096,-10.465 l -2.067,0.508 c 2.792,1.659 4.018,3.113 4.373,4.326 0.571,1.571 0.858,5.207 0.858,11.913 0,0 -0.065,5.058 -0.19,6.765 -0.857,0.14 -4.375,0.999 -5.461,1.241 l -0.05,1.59 c 2.242,-0.067 7.134,-0.137 9.06,-0.137 1.928,0 4.274,0.096 6.239,0.137 z"
         style="fill:#ff0031;fill-opacity:1;fill-rule:nonzero;stroke:none"
         id="path468" /></g><g
       id="g470"
       transform="matrix(1.3333333,0,0,-1.3333333,562.81772,527.24135)"><path
         d="m 0,0 c -0.418,-0.099 -1.617,-0.375 -2.674,-0.598 -0.064,-1.726 0.134,-14.426 0.156,-17.46 0,-0.436 -0.488,-0.659 -0.884,-0.264 -2.748,2.687 -11.504,12.606 -14.42,16.204 -0.008,-2.248 0.113,-11.286 0.136,-12.962 1.096,-0.303 3.637,-0.91 4.108,-1.005 l 0.105,-1.808 c -2.213,0.024 -9.526,0.016 -9.66,0 l 0.028,1.754 c 0.946,0.397 1.841,0.725 2.693,1.059 0.115,1.06 0.101,13.569 0.107,14.372 -0.722,0.066 -2.164,0.104 -3.158,0.151 v 2.175 c 1.199,0.023 4.908,0.013 6.942,0 2.527,-2.874 8.582,-9.626 11.652,-13.059 0.031,2.899 -0.168,9.686 -0.209,10.857 -0.522,0.096 -1.713,0.213 -3.024,0.485 l -0.169,1.707 c 0.517,-0.047 3.818,-0.099 4.433,-0.099 0.617,0 3.367,0.165 3.936,0.212 z"
         style="fill:#ff0031;fill-opacity:1;fill-rule:nonzero;stroke:none"
         id="path472" /></g><g
       id="g474"
       transform="matrix(1.3333333,0,0,-1.3333333,493.59892,534.02268)"><path
         d="m 0,0 c 0,-2.408 -2.242,-3.406 -4.687,-3.799 v -1.699 c 5.152,0.521 8.439,2.57 8.439,5.586 v 0.145 c 0,3.509 -2.33,6.554 -7.828,6.663 0,0 -1.977,0.079 -3.121,0.079 h -7.407 l 0.319,-1.928 c 1.033,-0.114 2.4,-0.227 3.267,-0.287 0.079,-2.41 0.323,-12.351 0.159,-15.172 -0.588,-0.129 -2.534,-0.522 -3.276,-0.707 l -0.183,-1.688 c 0.734,0.047 11.357,0.045 12.14,0 l -0.093,1.455 c -0.757,0.202 -3.487,0.696 -4.18,0.865 -0.094,0.665 -0.287,14.731 -0.244,15.342 1.103,0 3.121,-0.05 3.998,-0.283 C -0.594,4.012 0,1.744 0,0.324"
         style="fill:#ff0031;fill-opacity:1;fill-rule:nonzero;stroke:none"
         id="path476" /></g><g
       id="g478"
       transform="matrix(1.3333333,0,0,-1.3333333,302.60226,473.90735)"><path
         d="m 0,0 c -1.398,-0.136 -7.207,-1.437 -9.162,-1.855 -2.092,-0.56 -22.163,-16.26 -23.418,-19.886 -0.278,-1.258 0,-14.758 0,-14.758 l 11.346,-0.76 -0.399,-3.744 c -1.633,0.114 -12.16,0.093 -18.76,0.093 -3.346,0 -13.557,-0.374 -17.003,-0.274 l 0.429,3.569 c 2.152,-0.18 5.435,0.157 7.447,0.694 2.012,0.534 3.449,1.335 3.449,3.352 v 11.713 c -0.697,2.091 -17.389,23.106 -21.71,26.452 -1.255,0.422 -9.479,1.318 -11.431,1.734 l 0.406,3.518 h 38.09 L -41.266,6.61 C -42.938,6.191 -51,6.035 -53.092,5.48 c 5.438,-8.089 14.041,-18.503 16.832,-22.55 1.533,2.232 16.129,12.449 16.547,15.654 C -21.805,-1 -28.736,0 -29.848,0 L -30.51,3.584 H 2.378 Z"
         style="fill:#ff0031;fill-opacity:1;fill-rule:nonzero;stroke:none"
         id="path480" /></g><g
       id="g482"
       transform="matrix(1.3333333,0,0,-1.3333333,410.77346,514.61708)"><path
         d="m 0,0 c -6.001,0.357 -16.532,0.208 -22.741,0 l 0.367,3.176 c 0.935,0.094 5.842,0.871 7.086,1.05 v 10.865 c -2.987,0 -19.678,-0.362 -22.312,-1.035 V 4.293 c 0,0 7.191,-0.827 8.869,-1.006 l -0.385,-3.296 C -35.662,0.357 -48.691,0.37 -54.88,0.013 l 0.405,3.537 c 1.941,0.052 7.137,0.648 8.349,0.837 0.188,2.423 0.278,6.25 0.278,10.257 v 4.947 c 0,1.677 -0.09,6.526 -0.185,8.207 -1.427,0.004 -7.389,0.563 -9.071,0.654 l 0.411,3.133 c 5.382,-0.301 21.985,-0.294 26.562,-0.013 l -0.47,-2.917 c -1.3,-0.07 -7.192,-0.942 -8.999,-0.945 v -8.664 h 22.312 v 12.656 c -1.643,0.171 -5.664,1.067 -7.44,1.154 l 0.347,2.912 c 3.73,-0.276 18.479,-0.231 22.428,0 L -0.229,32.712 C -1.441,32.616 -5.77,31.878 -7.191,31.783 V 4.128 c 0,0 6.3,-0.768 7.609,-0.952 z"
         style="fill:#ff0031;fill-opacity:1;fill-rule:nonzero;stroke:none"
         id="path484" /></g><g
       id="g486"
       transform="matrix(1.3333333,0,0,-1.3333333,566.83599,502.34228)"><path
         d="M 0,0 H -5.996 V 31.502 H 7.613 L 6.391,26.769 Z m -4.516,-12.476 -4.116,-0.168 0.792,6.959 4.102,-0.198 3.836,0.145 -0.807,-6.813 z"
         style="fill:#ff0031;fill-opacity:1;fill-rule:nonzero;stroke:none"
         id="path488" /></g><g
       id="g490"
       transform="matrix(1.3333333,0,0,-1.3333333,476.70572,493.69122)"><path
         d="m 0,0 c 0,9.987 -9.572,16.048 -24.139,16.351 0,0 -0.519,0.004 -0.705,0.004 -0.187,0 -0.705,-0.004 -0.705,-0.004 -15.457,-0.324 -24.008,-6.42 -24.008,-16.4 0,-0.051 -0.006,-0.104 -0.006,-0.153 0,-0.051 0.002,-0.096 0.006,-0.148 0.098,-9.398 9.44,-16.094 24.008,-16.399 0,0 0.518,-0.008 0.705,-0.005 0.186,-0.003 0.705,0.005 0.705,0.005 14.567,0.305 23.963,6.6 24.137,16.359 C -0.002,-0.339 0,-0.049 0,0 m -23.363,-12.344 c -0.5,-0.014 -0.994,-0.044 -1.481,-0.066 -0.488,0.022 -0.98,0.052 -1.482,0.066 -5.045,0.141 -14.783,3.018 -14.783,11.707 0,0.132 -0.002,0.418 -0.002,0.435 0,0.016 0.002,0.307 0.002,0.438 0,8.693 9.738,11.571 14.783,11.708 0.502,0.014 0.994,0.044 1.482,0.068 0.487,-0.024 0.981,-0.054 1.481,-0.068 5.045,-0.137 14.785,-3.015 14.785,-11.708 0,-0.131 0.002,-0.419 0.002,-0.438 0,-0.017 -0.002,-0.303 -0.002,-0.435 0,-8.689 -9.74,-11.566 -14.785,-11.707"
         style="fill:#ff0031;fill-opacity:1;fill-rule:nonzero;stroke:none"
         id="path492" /></g><g
       id="g494"
       transform="matrix(1.3333333,0,0,-1.3333333,552.52865,488.41002)"><path
         d="m 0,0 c 0,0.06 -0.006,0.183 -0.006,0.183 -0.369,10.447 -10.435,17.198 -26.642,17.542 0,0 -0.44,0.01 -0.664,0.01 -0.219,0 -0.661,-0.01 -0.661,-0.01 C -44.186,17.381 -54.293,11.09 -54.615,0.183 V 0 -0.164 c 0.322,-10.911 10.429,-17.352 26.642,-17.693 0,0 0.442,-0.013 0.661,-0.01 0.224,-0.003 0.664,0.01 0.664,0.01 16.207,0.341 26.32,6.782 26.642,17.693 0,0 0.006,0.105 0.006,0.164 m -25.092,-13.093 c -0.746,-0.053 -1.486,-0.075 -2.22,-0.082 -0.735,0.007 -1.473,0.029 -2.219,0.082 -5.51,0.377 -15.502,3.759 -15.711,13.1 0.209,9.343 10.201,12.576 15.711,12.954 0.746,0.048 1.484,0.072 2.219,0.079 0.734,-0.007 1.474,-0.031 2.22,-0.079 C -19.58,12.583 -9.59,9.35 -9.381,0.007 -9.59,-9.334 -19.58,-12.716 -25.092,-13.093"
         style="fill:#ff0031;fill-opacity:1;fill-rule:nonzero;stroke:none"
         id="path496" /></g><g
       id="g498"
       transform="matrix(1.3333333,0,0,-1.3333333,334.92452,520.60535)"><path
         d="m 0,0 c -1.688,2.771 -8.061,18.473 -10.912,25.576 l 5.231,0.817 0.625,2.683 h -7.956 l 0.007,-0.026 c -3.023,-0.044 -15.34,0.067 -16.694,0.146 l -0.226,-2.794 6.324,-1.512 c 0,0 -9.255,-18.295 -11.102,-20.933 -1.644,-0.357 -5.663,-1.323 -7.169,-1.499 l -0.434,-3.379 c 1.246,0.176 17.398,0.085 18.893,0 l 0.346,3.049 -5.63,1.333 c 0,0 2.557,5.317 2.909,5.934 1.847,0.354 12.345,0.511 12.345,0.511 l 3.738,-10.152 c 0,0 -4.45,-0.687 -6.209,-0.773 l -0.395,-3.331 c 1.318,0 22.647,0.086 23.263,0 l 0.357,2.993 C 5.731,-1.271 1.495,-0.266 0,0 m -24.413,13.197 c 0.529,1.408 5.271,11.483 5.271,11.483 l 4.462,-11.483 z"
         style="fill:#ff0031;fill-opacity:1;fill-rule:nonzero;stroke:none"
         id="path500" /></g><g
       id="g502"
       transform="matrix(1.3333333,0,0,-1.3333333,508.83599,539.14508)"><path
         d="M 0,0 C 0.418,1.028 3.141,7.409 3.141,7.409 L 6.023,-0.023 Z M 12.695,-6.686 C 10.586,-2.287 7.053,6.352 6.105,8.684 L 8.625,9.021 8.799,10.71 -1.623,10.348 -1.66,8.934 1.043,8.464 C -0.742,4.566 -5.338,-5.395 -6.139,-6.566 -6.834,-6.812 -7.693,-7.078 -8.531,-7.384 l -0.17,-1.581 c 2.392,0.133 7.555,0.047 8.363,0 l 0.037,1.418 -2.588,0.736 c 0,0 1.614,3.901 2.196,5.077 2.011,0.027 7.318,-0.024 7.318,-0.024 L 8.6,-6.93 c 0,0 -1.838,-0.39 -3.204,-0.652 L 5.161,-8.965 c 0.714,0 10.146,0.047 10.48,0 l 0.181,1.635 c -0.867,0.184 -3.127,0.644 -3.127,0.644"
         style="fill:#ff0031;fill-opacity:1;fill-rule:nonzero;stroke:none"
         id="path504" /></g><g
       id="g506"
       transform="matrix(1.3333333,0,0,-1.3333333,450.63546,539.14761)"><path
         d="m 0,0 c 0.42,1.03 3.143,7.411 3.143,7.411 l 2.88,-7.432 z M 12.697,-6.686 C 11.377,-3.936 7.787,4.661 6.148,8.689 L 8.877,9.18 8.953,10.71 -1.623,10.35 -1.639,8.949 1.064,8.48 C -0.721,4.583 -5.338,-5.395 -6.139,-6.566 -7.014,-6.888 -7.781,-7.123 -8.531,-7.384 l -0.17,-1.581 c 2.363,0.08 7.556,0.047 8.363,0 l 0.039,1.42 -2.59,0.736 c 0,0 1.616,3.901 2.198,5.075 2.009,0.029 7.316,-0.024 7.316,-0.024 L 8.6,-6.928 c 0,0 -1.838,-0.392 -3.204,-0.652 L 5.162,-8.965 c 0.713,0 10.147,0.048 10.479,0 l 0.181,1.635 c -0.865,0.186 -3.125,0.644 -3.125,0.644"
         style="fill:#ff0031;fill-opacity:1;fill-rule:nonzero;stroke:none"
         id="path508" /></g></g></svg>
